<svg data-v-423bf9ae="" xmlns="http://www.w3.org/2000/svg" viewBox="0 0 329.554457046532 188" class="iconAboveSlogan"><!----><!----><!----><g data-v-423bf9ae="" id="36c055f4-ac7b-44e0-a26e-ceb91b5d7f0b" fill="#ffffff" transform="matrix(4.950495096249109,0,0,4.950495096249109,2.6237656677976418,91.61386079942932)"><path d="M6.34 5.18L6.34 5.18L6.34 5.18Q6.59 5.01 7.64 4.25L7.64 4.25L7.64 4.25Q8.64 4.96 10.40 11.50L10.40 11.50L10.40 11.50Q10.52 11.96 10.59 12.23L10.59 12.23L10.59 12.23Q10.72 11.92 10.94 11.43L10.94 11.43L10.94 11.43Q11.17 10.95 11.43 10.38L11.43 10.38L11.43 10.38Q11.70 9.82 11.97 9.21L11.97 9.21L11.97 9.21Q12.24 8.60 12.46 8.04L12.46 8.04L12.46 8.04Q12.95 6.79 12.95 6.28L12.95 6.28L12.95 6.28Q12.95 5.49 12.44 5.14L12.44 5.14L12.44 5.14Q12.27 5.02 12.09 5.02L12.09 5.02L12.09 5.02Q11.79 5.02 11.54 5.14L11.54 5.14L11.54 5.14Q11.76 5.02 11.97 4.85L11.97 4.85L11.97 4.85Q12.17 4.68 12.37 4.51L12.37 4.51L12.37 4.51Q12.88 4.11 13.31 4.11L13.31 4.11L13.31 4.11Q13.75 4.11 14.03 4.46L14.03 4.46L14.03 4.46Q14.29 4.77 14.29 5.23L14.29 5.23L14.29 5.23Q14.29 6.05 12.25 10.57L12.25 10.57L12.25 10.57Q11.55 12.11 11.46 12.34L11.46 12.34L11.46 12.34Q11.38 12.56 11.29 12.77L11.29 12.77L11.29 12.77Q11.07 13.25 10.97 13.39L10.97 13.39L10.97 13.39Q10.87 13.54 10.69 13.67L10.69 13.67L10.69 13.67Q10.51 13.79 10.29 13.94L10.29 13.94L10.29 13.94Q10.07 14.09 9.86 14.22L9.86 14.22L9.86 14.22Q9.66 14.36 9.58 14.42L9.58 14.42L9.58 14.42Q9.37 13.61 9.17 12.80L9.17 12.80L9.17 12.80Q8.97 12.00 8.75 11.20L8.75 11.20L8.75 11.20Q8.29 9.50 7.76 8.04L7.76 8.04L7.76 8.04Q7.28 9.34 6.57 10.90L6.57 10.90L6.57 10.90Q5.86 12.46 5.70 12.83L5.70 12.83L5.70 12.83Q5.54 13.21 5.34 13.49L5.34 13.49L5.34 13.49Q5.26 13.60 4.68 13.98L4.68 13.98L4.68 13.98Q4.09 14.36 4.01 14.42L4.01 14.42L4.01 14.42Q3.94 14.10 3.81 13.54L3.81 13.54L3.81 13.54Q3.69 12.97 3.53 12.26L3.53 12.26L3.53 12.26Q3.36 11.54 3.16 10.73L3.16 10.73L3.16 10.73Q2.95 9.93 2.71 9.13L2.71 9.13L2.71 9.13Q2.46 8.33 2.18 7.59L2.18 7.59L2.18 7.59Q1.90 6.86 1.59 6.30L1.59 6.30L1.59 6.30Q0.90 5.08 0.21 5.08L0.21 5.08L0.21 5.08Q-0.14 5.08-0.53 5.30L-0.53 5.30L-0.53 5.30Q0.14 4.61 1.07 4.25L1.07 4.25L1.07 4.25Q1.37 4.13 1.60 4.13L1.60 4.13L1.60 4.13Q2.19 4.13 2.71 4.95L2.71 4.95L2.71 4.95Q3.16 5.69 3.47 6.57L3.47 6.57L3.47 6.57Q3.77 7.46 3.96 8.06L3.96 8.06L3.96 8.06Q4.14 8.67 4.31 9.27L4.31 9.27L4.31 9.27Q4.47 9.88 4.61 10.43L4.61 10.43L4.61 10.43Q4.81 11.22 5.04 12.24L5.04 12.24L5.04 12.24Q5.20 11.88 5.40 11.44L5.40 11.44L5.40 11.44Q5.61 10.99 5.81 10.51L5.81 10.51L5.81 10.51Q6.02 10.03 6.22 9.52L6.22 9.52L6.22 9.52Q6.42 9.02 6.58 8.52L6.58 8.52L6.58 8.52Q6.92 7.42 6.92 6.73L6.92 6.73L6.92 6.73Q6.92 5.73 6.34 5.18ZM20.31 8.18L20.31 8.18L20.31 8.18Q20.66 8.57 20.85 9.08L20.85 9.08L20.85 9.08Q21.05 9.59 21.05 10.10L21.05 10.10L21.05 10.10Q21.05 10.62 20.90 11.10L20.90 11.10L20.90 11.10Q20.75 11.59 20.48 12.04L20.48 12.04L20.48 12.04Q20.21 12.50 19.84 12.89L19.84 12.89L19.84 12.89Q19.48 13.28 19.04 13.58L19.04 13.58L19.04 13.58Q18.11 14.20 17.16 14.20L17.16 14.20L17.16 14.20Q16.04 14.20 15.26 13.33L15.26 13.33L15.26 13.33Q14.51 12.50 14.51 11.38L14.51 11.38L14.51 11.38Q14.51 10.42 15.09 9.45L15.09 9.45L15.09 9.45Q15.96 7.99 17.45 7.48L17.45 7.48L17.45 7.48Q17.93 7.31 18.46 7.31L18.46 7.31L18.46 7.31Q19.00 7.31 19.48 7.54L19.48 7.54L19.48 7.54Q19.96 7.78 20.31 8.18ZM17.08 8.22L17.08 8.22L17.08 8.22Q16.39 8.22 16.08 8.89L16.08 8.89L16.08 8.89Q15.83 9.41 15.83 10.06L15.83 10.06L15.83 10.06Q15.83 10.72 16.01 11.28L16.01 11.28L16.01 11.28Q16.18 11.85 16.52 12.29L16.52 12.29L16.52 12.29Q17.28 13.29 18.48 13.29L18.48 13.29L18.48 13.29Q19.17 13.29 19.49 12.59L19.49 12.59L19.49 12.59Q19.71 12.07 19.71 11.40L19.71 11.40L19.71 11.40Q19.71 10.08 18.98 9.15L18.98 9.15L18.98 9.15Q18.25 8.22 17.08 8.22ZM27.84 8.18L27.84 8.18L27.84 8.18Q28.19 8.57 28.39 9.08L28.39 9.08L28.39 9.08Q28.58 9.59 28.58 10.10L28.58 10.10L28.58 10.10Q28.58 10.62 28.43 11.10L28.43 11.10L28.43 11.10Q28.28 11.59 28.01 12.04L28.01 12.04L28.01 12.04Q27.74 12.50 27.37 12.89L27.37 12.89L27.37 12.89Q27.01 13.28 26.57 13.58L26.57 13.58L26.57 13.58Q25.64 14.20 24.69 14.20L24.69 14.20L24.69 14.20Q23.58 14.20 22.80 13.33L22.80 13.33L22.80 13.33Q22.04 12.50 22.04 11.38L22.04 11.38L22.04 11.38Q22.04 10.42 22.62 9.45L22.62 9.45L22.62 9.45Q23.49 7.99 24.99 7.48L24.99 7.48L24.99 7.48Q25.46 7.31 26.00 7.31L26.00 7.31L26.00 7.31Q26.53 7.31 27.01 7.54L27.01 7.54L27.01 7.54Q27.49 7.78 27.84 8.18ZM24.61 8.22L24.61 8.22L24.61 8.22Q23.93 8.22 23.61 8.89L23.61 8.89L23.61 8.89Q23.37 9.41 23.37 10.06L23.37 10.06L23.37 10.06Q23.37 10.72 23.54 11.28L23.54 11.28L23.54 11.28Q23.71 11.85 24.06 12.29L24.06 12.29L24.06 12.29Q24.81 13.29 26.01 13.29L26.01 13.29L26.01 13.29Q26.71 13.29 27.02 12.59L27.02 12.59L27.02 12.59Q27.25 12.07 27.25 11.40L27.25 11.40L27.25 11.40Q27.25 10.08 26.51 9.15L26.51 9.15L26.51 9.15Q25.78 8.22 24.61 8.22ZM31.86 7.86L31.86 7.86Q32.33 7.59 32.86 7.45L32.86 7.45L32.86 7.45Q33.39 7.30 33.75 7.30L33.75 7.30L33.75 7.30Q34.11 7.30 34.38 7.35L34.38 7.35L34.38 5.11L34.38 5.11Q34.38 4.38 34.12 4.14L34.12 4.14L34.12 4.14Q34.00 4.03 33.82 4.03L33.82 4.03L33.82 4.03Q33.61 4.03 33.20 4.13L33.20 4.13L33.20 4.13Q34.91 2.82 35.71 2.41L35.71 2.41L35.71 12.19L35.71 12.19Q35.71 12.74 35.83 12.92L35.83 12.92L35.83 12.92Q36.03 13.26 36.54 13.26L36.54 13.26L36.54 13.26Q36.74 13.26 36.94 13.22L36.94 13.22L36.94 13.22Q36.74 13.38 36.55 13.55L36.55 13.55L36.55 13.55Q36.35 13.72 36.14 13.86L36.14 13.86L36.14 13.86Q35.66 14.19 35.29 14.19L35.29 14.19L35.29 14.19Q34.92 14.19 34.76 14.12L34.76 14.12L34.76 14.12Q34.60 14.05 34.51 13.92L34.51 13.92L34.51 13.92Q34.37 13.73 34.37 13.18L34.37 13.18L34.37 13.18Q32.97 14.22 32.12 14.22L32.12 14.22L32.12 14.22Q30.87 14.22 30.21 13.38L30.21 13.38L30.21 13.38Q29.59 12.62 29.59 11.33L29.59 11.33L29.59 11.33Q29.59 10.28 30.25 9.32L30.25 9.32L30.25 9.32Q30.86 8.42 31.86 7.86L31.86 7.86ZM34.38 12.60L34.38 9.21L34.38 9.21Q34.08 8.72 33.58 8.47L33.58 8.47L33.58 8.47Q33.09 8.22 32.56 8.22L32.56 8.22L32.56 8.22Q32.03 8.22 31.71 8.40L31.71 8.40L31.71 8.40Q31.40 8.58 31.22 8.88L31.22 8.88L31.22 8.88Q30.91 9.40 30.91 10.18L30.91 10.18L30.91 10.18Q30.91 10.96 31.05 11.49L31.05 11.49L31.05 11.49Q31.19 12.02 31.48 12.43L31.48 12.43L31.48 12.43Q32.12 13.30 33.36 13.30L33.36 13.30L33.36 13.30Q33.63 13.30 33.89 13.14L33.89 13.14L33.89 13.14Q34.38 12.85 34.38 12.60L34.38 12.60ZM38.16 13.24L38.16 4.94L38.16 4.94Q38.16 3.92 37.56 3.92L37.56 3.92L37.56 3.92Q37.38 3.92 36.97 4.02L36.97 4.02L36.97 4.02Q37.25 3.81 37.56 3.57L37.56 3.57L37.56 3.57Q37.87 3.34 38.19 3.10L38.19 3.10L38.19 3.10Q38.89 2.62 39.49 2.30L39.49 2.30L39.48 8.58L39.48 8.58Q40.25 7.90 41.19 7.57L41.19 7.57L41.19 7.57Q41.50 7.46 41.74 7.46L41.74 7.46L41.74 7.46Q41.98 7.46 42.17 7.55L42.17 7.55L42.17 7.55Q42.36 7.63 42.49 7.77L42.49 7.77L42.49 7.77Q42.79 8.07 42.79 8.46L42.79 8.46L42.79 8.46Q42.79 8.84 42.59 9.15L42.59 9.15L42.59 9.15Q42.40 9.46 42.12 9.73L42.12 9.73L42.12 9.73Q41.73 10.13 40.95 10.63L40.95 10.63L40.95 10.63Q41.05 10.73 41.26 10.96L41.26 10.96L41.26 10.96Q41.47 11.20 41.73 11.48L41.73 11.48L41.73 11.48Q41.99 11.77 42.29 12.08L42.29 12.08L42.29 12.08Q42.59 12.39 42.85 12.64L42.85 12.64L42.85 12.64Q43.47 13.22 43.66 13.22L43.66 13.22L43.66 13.22Q44.14 13.22 44.60 12.95L44.60 12.95L44.60 12.95Q44.02 13.76 43.16 14.09L43.16 14.09L43.16 14.09Q42.88 14.20 42.66 14.20L42.66 14.20L42.66 14.20Q42.44 14.20 42.32 14.15L42.32 14.15L42.32 14.15Q42.19 14.10 42.08 14.03L42.08 14.03L42.08 14.03Q41.85 13.88 41.47 13.49L41.47 13.49L41.47 13.49Q40.67 12.69 39.48 11.41L39.48 11.41L39.48 12.11L39.48 12.11Q39.48 12.27 39.48 12.47L39.48 12.47L39.48 12.47Q39.48 12.67 39.52 12.86L39.52 12.86L39.52 12.86Q39.61 13.30 40.00 13.30L40.00 13.30L40.00 13.30Q40.14 13.30 40.30 13.23L40.30 13.23L40.30 13.23Q40.15 13.35 39.97 13.52L39.97 13.52L39.97 13.52Q39.78 13.69 39.57 13.85L39.57 13.85L39.57 13.85Q39.06 14.23 38.73 14.23L38.73 14.23L38.73 14.23Q38.16 14.23 38.16 13.24L38.16 13.24ZM40.45 8.39L40.45 8.39L40.45 8.39Q39.48 8.39 39.48 10.86L39.48 10.86L39.48 11.22L39.48 11.22Q40.74 10.72 41.25 9.97L41.25 9.97L41.25 9.97Q41.46 9.68 41.46 9.40L41.46 9.40L41.46 9.40Q41.46 9.13 41.38 8.95L41.38 8.95L41.38 8.95Q41.30 8.78 41.16 8.65L41.16 8.65L41.16 8.65Q40.86 8.39 40.45 8.39ZM50.57 8.18L50.57 8.18L50.57 8.18Q50.91 8.57 51.11 9.08L51.11 9.08L51.11 9.08Q51.30 9.59 51.30 10.10L51.30 10.10L51.30 10.10Q51.30 10.62 51.15 11.10L51.15 11.10L51.15 11.10Q51.00 11.59 50.73 12.04L50.73 12.04L50.73 12.04Q50.46 12.50 50.10 12.89L50.10 12.89L50.10 12.89Q49.73 13.28 49.29 13.58L49.29 13.58L49.29 13.58Q48.36 14.20 47.41 14.20L47.41 14.20L47.41 14.20Q46.30 14.20 45.52 13.33L45.52 13.33L45.52 13.33Q44.76 12.50 44.76 11.38L44.76 11.38L44.76 11.38Q44.76 10.42 45.34 9.45L45.34 9.45L45.34 9.45Q46.21 7.99 47.71 7.48L47.71 7.48L47.71 7.48Q48.19 7.31 48.72 7.31L48.72 7.31L48.72 7.31Q49.25 7.31 49.73 7.54L49.73 7.54L49.73 7.54Q50.22 7.78 50.57 8.18ZM47.33 8.22L47.33 8.22L47.33 8.22Q46.65 8.22 46.33 8.89L46.33 8.89L46.33 8.89Q46.09 9.41 46.09 10.06L46.09 10.06L46.09 10.06Q46.09 10.72 46.26 11.28L46.26 11.28L46.26 11.28Q46.44 11.85 46.78 12.29L46.78 12.29L46.78 12.29Q47.54 13.29 48.73 13.29L48.73 13.29L48.73 13.29Q49.43 13.29 49.75 12.59L49.75 12.59L49.75 12.59Q49.97 12.07 49.97 11.40L49.97 11.40L49.97 11.40Q49.97 10.08 49.24 9.15L49.24 9.15L49.24 9.15Q48.50 8.22 47.33 8.22ZM58.10 8.18L58.10 8.18L58.10 8.18Q58.45 8.57 58.64 9.08L58.64 9.08L58.64 9.08Q58.84 9.59 58.84 10.10L58.84 10.10L58.84 10.10Q58.84 10.62 58.69 11.10L58.69 11.10L58.69 11.10Q58.54 11.59 58.27 12.04L58.27 12.04L58.27 12.04Q58.00 12.50 57.63 12.89L57.63 12.89L57.63 12.89Q57.26 13.28 56.83 13.58L56.83 13.58L56.83 13.58Q55.90 14.20 54.95 14.20L54.95 14.20L54.95 14.20Q53.83 14.20 53.05 13.33L53.05 13.33L53.05 13.33Q52.29 12.50 52.29 11.38L52.29 11.38L52.29 11.38Q52.29 10.42 52.88 9.45L52.88 9.45L52.88 9.45Q53.74 7.99 55.24 7.48L55.24 7.48L55.24 7.48Q55.72 7.31 56.25 7.31L56.25 7.31L56.25 7.31Q56.79 7.31 57.27 7.54L57.27 7.54L57.27 7.54Q57.75 7.78 58.10 8.18ZM54.87 8.22L54.87 8.22L54.87 8.22Q54.18 8.22 53.87 8.89L53.87 8.89L53.87 8.89Q53.62 9.41 53.62 10.06L53.62 10.06L53.62 10.06Q53.62 10.72 53.80 11.28L53.80 11.28L53.80 11.28Q53.97 11.85 54.31 12.29L54.31 12.29L54.31 12.29Q55.07 13.29 56.27 13.29L56.27 13.29L56.27 13.29Q56.96 13.29 57.28 12.59L57.28 12.59L57.28 12.59Q57.50 12.07 57.50 11.40L57.50 11.40L57.50 11.40Q57.50 10.08 56.77 9.15L56.77 9.15L56.77 9.15Q56.03 8.22 54.87 8.22ZM61.94 8.22L61.94 11.96L61.94 11.96Q61.94 12.65 61.51 13.15L61.51 13.15L63.52 13.15L63.52 13.15Q63.44 13.21 63.25 13.37L63.25 13.37L63.25 13.37Q63.07 13.52 62.86 13.69L62.86 13.69L62.86 13.69Q62.33 14.08 62.19 14.08L62.19 14.08L60.04 14.08L60.04 14.08Q60.38 13.81 60.47 13.54L60.47 13.54L60.47 13.54Q60.61 13.15 60.61 12.67L60.61 12.67L60.61 8.22L59.75 8.22L60.61 7.55L60.61 7.55Q60.61 6.13 60.69 5.68L60.69 5.68L60.69 5.68Q60.76 5.23 60.89 4.91L60.89 4.91L60.89 4.91Q61.02 4.59 61.26 4.29L61.26 4.29L61.26 4.29Q61.71 3.71 62.75 3.03L62.75 3.03L62.75 3.03Q63.72 2.38 64.59 2.38L64.59 2.38L64.59 2.38Q65.08 2.38 65.72 2.64L65.72 2.64L65.72 2.64Q66.04 2.77 66.04 2.91L66.04 2.91L66.04 2.91Q66.04 3.09 65.41 3.57L65.41 3.57L65.41 3.57Q64.83 4.01 64.57 4.04L64.57 4.04L64.57 4.04Q64.70 3.90 64.70 3.82L64.70 3.82L64.70 3.82Q64.70 3.73 64.51 3.64L64.51 3.64L64.51 3.64Q64.32 3.54 64.07 3.47L64.07 3.47L64.07 3.47Q63.53 3.30 63.30 3.30L63.30 3.30L63.30 3.30Q62.82 3.30 62.54 3.39L62.54 3.39L62.54 3.39Q61.97 4.17 61.95 5.69L61.95 5.69L61.95 5.69Q61.94 6.10 61.94 6.47L61.94 6.47L61.94 7.29L64.50 7.29L64.50 7.29Q64.41 7.31 64.05 7.63L64.05 7.63L64.05 7.63Q63.36 8.22 63.17 8.22L63.17 8.22L61.94 8.22Z"></path></g><!----><g data-v-423bf9ae="" id="a478ddd3-c188-42e3-9d3e-02cef0fa05b4" transform="matrix(1.0000668888325406,0,0,1.0000668888325406,114.80963274657765,-5.000334847444101)" stroke="none" fill="#F69800"><path d="M80.6 11.7c-3.3-.8-6.2.9-7.3 4.3-.4 1.2-9 29.2-9.5 31-.1.3-.2.4-.3.5-.1-.1-.1-.2-.2-.5-.5-1.9-3-8.9-7.9-22 .7-4.6 1.3-8.4 1.6-9.7.3-1.6 0-3.2-.8-4.5-.8-1.5-2.2-2.5-3.8-2.8-1.2-.2-2.3-.2-3.2.1-.6-1.1-1.6-2-2.8-2.5-1.5-.7-3.2-.8-4.8-.2-3.3 1.2-4.9 4.7-3.8 8 .5 1.4 1.8 5.4 4.1 12-2.3 9.1-5 20-5.4 21.6v.4c-.4.1-.7.2-1 .3v-.1c-.5-1.4-4.5-11.3-7.4-18.5-1.3-3.2-2.3-5.8-2.5-6.3-1.3-3.2-4.6-4.2-7-3.3-2.9 1.1-4.3 4-3.3 7 .9 2.8 9.2 29 9.7 31.7.4 2.2.3 4.5.1 6.8-.1 1.1-.1 2.2-.1 3.2 0 7.1 2.9 13.9 8.1 18.9 5.2 5.1 12.1 7.9 19.5 7.9C71 95 79.2 81.3 79.3 67.6v-.1-.3c0-3.7-.4-6.3-.7-8.4-.2-1.4-.4-2.6-.4-3.6 0-2.2 4.2-22.5 6.1-31.2.5-2.5.9-4.4 1-5 .4-3.5-1.5-6.6-4.7-7.3zm-40.6 1c-.6-1.8 0-4.1 2.3-5 1-.4 2-.3 3 .1.7.3 1.3.9 1.7 1.6-.8.8-1.5 1.8-2 3.2v.1c0 .1-.9 3.7-2.1 8.6-1.5-4.7-2.5-7.5-2.9-8.6zm31 72c-4.3 5.2-10.7 7.9-18.5 7.9-6.7 0-13-2.6-17.8-7.2-4.8-4.6-7.4-10.7-7.4-17.2 0-1 .1-2 .1-3.1.2-2.3.3-4.9-.2-7.4-.6-2.8-8.8-29.1-9.8-31.9-.4-1.4-.2-3.2 1.8-4 1.4-.5 3.2 0 4 1.9.2.5 1.2 3 2.5 6.3 2.7 6.8 6.9 17 7.3 18.4.1.2.1.3.2.5-1.5 1.2-2.2 3-2.2 4.7 0 1.6 1.2 7.4 6.7 12.9 3.1 3.1 6.9 5.5 11.5 7.2 5.5 2.1 12.1 3.2 19.6 3.2.7 0 1.2-.5 1.2-1.2s-.5-1.2-1.2-1.2c-12.9 0-23.1-3.3-29.4-9.7-4.9-5-6-10.2-6-11.2 0-2 1.4-4 4.7-4 .8 0 2.2 1 3.9 2.1 4.7 3.3 12.7 8.8 27.6 8.8 5 0 6.9 4 7.1 6.7v.3c0 6.7-2 12.8-5.7 17.2zm11.7-66.2c-.1.6-.5 2.4-1 4.9-3.2 15.2-6.1 29.6-6.1 31.7 0 1.3.2 2.5.4 4 .1.5.2 1 .2 1.5-1.3-1.3-3.4-2.5-6.6-2.5-14.2 0-21.7-5.2-26.2-8.3-1.8-1.3-3.2-2.2-4.5-2.5 1.1-4.3 8-32.3 8.5-34.1 1-2.9 3-3.2 4.5-2.9 2.3.5 3.1 2.7 2.8 4.5-.7 3.9-4.9 31.5-5.1 32.7-.1.7.3 1.3 1 1.4h.2c.6 0 1.1-.4 1.2-1 0-.2 1.4-9.4 2.8-18C57 36 60.4 45.6 61 47.7c.5 1.7 1.6 2.3 2.5 2.3 1.2 0 2.2-1 2.6-2.4.5-1.7 9.4-30.7 9.5-30.9 1-3.1 3.5-2.9 4.5-2.7 1.9.4 3 2.4 2.6 4.5z"></path></g><!----><g data-v-423bf9ae="" id="ac73c4d7-cba6-48ca-a54e-e04f37935cd4" fill="#ffffff" transform="matrix(0.9789521822220927,0,0,0.9789521822220927,41.43644260025745,199.3740055217143)"><path d="M5.25 11.06C5.14 10.86 5.00 10.71 4.82 10.57C4.63 10.43 4.42 10.32 4.20 10.23C3.98 10.15 3.72 10.05 3.49 9.98C3.25 9.91 3.01 9.83 2.77 9.76C2.55 9.69 2.34 9.59 2.16 9.49C1.97 9.39 1.83 9.27 1.72 9.13C1.61 8.99 1.55 8.81 1.55 8.58C1.55 8.40 1.58 8.23 1.67 8.08C1.75 7.92 1.86 7.77 2.02 7.64C2.16 7.52 2.34 7.43 2.55 7.36C2.76 7.29 2.98 7.25 3.23 7.25C3.60 7.25 3.96 7.31 4.34 7.43C4.35 7.60 4.37 7.77 4.38 7.92C4.40 8.08 4.40 8.19 4.41 8.27C4.42 8.36 4.42 8.43 4.42 8.44C4.44 8.67 4.54 8.78 4.73 8.78L5.07 8.78L5.07 7.11C4.34 6.86 3.72 6.75 3.22 6.75C2.87 6.75 2.55 6.80 2.27 6.90C1.99 7.00 1.74 7.14 1.54 7.31C1.34 7.48 1.19 7.69 1.08 7.91C0.97 8.13 0.92 8.37 0.92 8.62C0.92 8.92 0.98 9.16 1.09 9.35C1.20 9.55 1.34 9.70 1.53 9.84C1.71 9.98 1.90 10.09 2.14 10.18C2.37 10.26 2.60 10.35 2.86 10.42C3.09 10.49 3.33 10.57 3.57 10.64C3.79 10.71 4.00 10.81 4.19 10.92C4.37 11.03 4.52 11.16 4.63 11.31C4.75 11.47 4.80 11.65 4.80 11.89C4.80 12.10 4.76 12.29 4.69 12.49C4.61 12.68 4.49 12.84 4.34 12.98C4.19 13.12 4.00 13.23 3.78 13.31C3.56 13.40 3.30 13.44 3.01 13.44C2.48 13.44 2.03 13.37 1.65 13.22C1.64 13.03 1.62 12.87 1.61 12.71C1.60 12.56 1.60 12.43 1.58 12.35C1.57 12.26 1.57 12.19 1.57 12.18C1.55 11.96 1.46 11.84 1.26 11.84L0.92 11.84L0.92 13.54C1.60 13.79 2.28 13.93 2.98 13.93C3.37 13.93 3.71 13.87 4.02 13.76C4.33 13.65 4.58 13.50 4.79 13.30C5.00 13.10 5.15 12.89 5.26 12.63C5.38 12.36 5.43 12.08 5.43 11.77C5.43 11.49 5.36 11.26 5.25 11.06ZM15.89 13.93C16.18 13.93 16.46 13.86 16.74 13.75C17.01 13.64 17.23 13.48 17.42 13.29L17.23 12.98C17.19 12.94 17.16 12.92 17.12 12.92C17.09 12.92 17.04 12.94 16.98 12.99C16.93 13.05 16.86 13.09 16.77 13.15C16.69 13.20 16.58 13.26 16.45 13.31C16.32 13.37 16.20 13.38 16.03 13.38C15.89 13.38 15.75 13.36 15.64 13.31C15.53 13.27 15.43 13.20 15.34 13.12C15.26 13.03 15.19 12.92 15.13 12.78C15.08 12.64 15.06 12.49 15.06 12.29L15.06 7.57L17.26 7.57L17.26 7.07L15.06 7.07L15.06 4.41L14.74 4.41C14.69 4.41 14.66 4.44 14.63 4.47C14.60 4.49 14.57 4.54 14.57 4.58L14.41 7.07L13.22 7.15L13.22 7.41C13.22 7.46 13.23 7.49 13.26 7.52C13.29 7.55 13.34 7.57 13.40 7.57L14.39 7.57L14.39 12.33C14.39 12.88 14.52 13.27 14.78 13.54C15.05 13.80 15.41 13.93 15.89 13.93ZM31.99 6.86L31.47 6.86L30.07 6.86L30.07 7.13C30.07 7.28 30.17 7.36 30.35 7.38L30.42 7.38C30.45 7.38 30.48 7.39 30.52 7.39L30.73 7.39C30.83 7.39 30.94 7.41 31.07 7.41L28.92 12.45L28.84 12.66C28.81 12.73 28.80 12.80 28.77 12.87C28.76 12.80 28.71 12.73 28.70 12.66C28.67 12.59 28.66 12.52 28.63 12.45L26.46 7.41C26.61 7.41 26.75 7.39 26.87 7.39C26.98 7.39 27.06 7.38 27.09 7.38L27.17 7.38C27.36 7.36 27.45 7.28 27.45 7.13L27.45 6.86L26.04 6.86L26.04 6.86L25.48 6.86L25.02 6.86L25.02 7.13C25.02 7.28 25.12 7.36 25.30 7.38C25.30 7.38 25.44 7.38 25.72 7.39L28.43 13.57L27.20 16.28L27.68 16.28C27.76 16.28 27.83 16.25 27.87 16.21C27.92 16.17 27.96 16.13 27.99 16.06L31.75 7.39L32.00 7.39C32.09 7.39 32.13 7.38 32.16 7.38L32.23 7.38C32.41 7.36 32.51 7.28 32.51 7.13L32.51 6.86ZM42.62 13.29L42.55 13.29L42.43 13.29C42.39 13.29 42.32 13.27 42.22 13.27C42.13 13.27 42.01 13.26 41.89 13.26L41.89 3.63L41.22 3.63L40.21 3.63L40.21 3.91C40.21 4.06 40.31 4.14 40.49 4.16L40.56 4.16C40.59 4.16 40.63 4.17 40.67 4.17L40.88 4.17C40.98 4.17 41.09 4.19 41.22 4.19L41.22 13.26C41.06 13.26 40.92 13.29 40.81 13.29L40.57 13.29L40.49 13.29C40.31 13.30 40.21 13.38 40.21 13.54L40.21 13.82L41.22 13.82L41.89 13.82L42.90 13.82L42.90 13.54C42.90 13.38 42.80 13.30 42.62 13.29ZM54.11 6.73C53.62 6.73 53.17 6.83 52.78 7.00C52.39 7.17 52.07 7.41 51.80 7.71C51.53 8.02 51.32 8.39 51.18 8.81C51.04 9.23 50.96 9.69 50.96 10.19C50.96 10.78 51.04 11.31 51.20 11.77C51.35 12.24 51.56 12.61 51.84 12.94C52.12 13.26 52.46 13.50 52.85 13.66C53.24 13.83 53.68 13.90 54.15 13.90C54.42 13.90 54.68 13.89 54.94 13.83C55.19 13.78 55.44 13.71 55.66 13.62C55.89 13.54 56.10 13.44 56.28 13.31C56.46 13.19 56.62 13.06 56.73 12.92L56.55 12.70C56.52 12.66 56.46 12.63 56.41 12.63C56.36 12.63 56.28 12.66 56.18 12.74C56.08 12.82 55.94 12.91 55.76 13.01C55.59 13.10 55.37 13.17 55.12 13.26C54.87 13.34 54.56 13.38 54.21 13.38C53.82 13.38 53.47 13.31 53.14 13.17C52.82 13.03 52.56 12.84 52.33 12.57C52.11 12.31 51.94 11.97 51.81 11.58C51.69 11.19 51.63 10.71 51.63 10.19L51.63 10.07L56.66 10.07C56.73 10.07 56.77 10.05 56.80 10.01C56.83 9.97 56.85 9.90 56.85 9.80C56.85 9.31 56.78 8.88 56.64 8.50C56.50 8.12 56.32 7.78 56.07 7.53C55.83 7.28 55.54 7.08 55.20 6.94C54.87 6.80 54.50 6.73 54.11 6.73ZM54.12 7.24C54.45 7.24 54.73 7.29 54.99 7.41C55.26 7.52 55.48 7.67 55.66 7.88C55.85 8.09 56 8.33 56.10 8.62C56.20 8.92 56.25 9.25 56.25 9.63L51.66 9.63C51.70 9.27 51.79 8.93 51.91 8.64C52.04 8.34 52.21 8.09 52.42 7.88C52.63 7.67 52.88 7.52 53.16 7.41C53.44 7.29 53.76 7.24 54.12 7.24ZM77.67 13.93C77.97 13.93 78.25 13.86 78.53 13.75C78.79 13.64 79.02 13.48 79.20 13.29L79.02 12.98C78.97 12.94 78.95 12.92 78.90 12.92C78.88 12.92 78.82 12.94 78.76 12.99C78.71 13.05 78.64 13.09 78.55 13.15C78.47 13.20 78.36 13.26 78.23 13.31C78.11 13.37 77.98 13.38 77.81 13.38C77.67 13.38 77.53 13.36 77.42 13.31C77.31 13.27 77.21 13.20 77.13 13.12C77.04 13.03 76.97 12.92 76.92 12.78C76.86 12.64 76.85 12.49 76.85 12.29L76.85 7.57L79.04 7.57L79.04 7.07L76.85 7.07L76.85 4.41L76.52 4.41C76.47 4.41 76.44 4.44 76.41 4.47C76.38 4.49 76.36 4.54 76.36 4.58L76.19 7.07L75.00 7.15L75.00 7.41C75.00 7.46 75.01 7.49 75.04 7.52C75.07 7.55 75.12 7.57 75.18 7.57L76.17 7.57L76.17 12.33C76.17 12.88 76.30 13.27 76.57 13.54C76.83 13.80 77.20 13.93 77.67 13.93ZM94.64 13.29L94.56 13.29L94.46 13.29C94.42 13.29 94.35 13.27 94.25 13.27C94.15 13.27 94.02 13.26 93.90 13.26L93.90 9.37C93.90 8.96 93.86 8.60 93.76 8.27C93.66 7.95 93.52 7.67 93.32 7.45C93.13 7.22 92.89 7.06 92.60 6.93C92.30 6.80 91.97 6.75 91.59 6.75C91.07 6.75 90.61 6.86 90.19 7.10C89.78 7.34 89.42 7.66 89.10 8.05L89.10 3.64L88.42 3.64L87.42 3.64L87.42 3.91C87.42 4.06 87.51 4.14 87.70 4.16L87.77 4.16C87.79 4.16 87.84 4.17 87.88 4.17L88.09 4.17C88.19 4.17 88.30 4.19 88.42 4.19L88.42 13.26C88.27 13.26 88.13 13.29 88.02 13.29L87.78 13.29L87.70 13.29C87.51 13.30 87.42 13.38 87.42 13.54L87.42 13.82L88.42 13.82L89.10 13.82L90.10 13.82L90.10 13.54C90.10 13.38 90.01 13.30 89.82 13.29L89.75 13.29L89.64 13.29C89.60 13.29 89.53 13.27 89.43 13.27C89.33 13.27 89.22 13.26 89.10 13.26L89.10 8.60C89.40 8.19 89.75 7.87 90.15 7.63C90.54 7.39 90.96 7.28 91.42 7.28C92.04 7.28 92.50 7.46 92.79 7.83C93.09 8.20 93.24 8.71 93.24 9.37L93.24 13.82L93.90 13.82L94.91 13.82L94.91 13.54C94.91 13.38 94.82 13.30 94.64 13.29ZM108.77 13.29L108.67 13.29L108.44 13.29C108.35 13.29 108.23 13.27 108.12 13.27L108.12 9.28C108.12 8.89 108.08 8.55 107.98 8.23C107.88 7.91 107.74 7.64 107.56 7.42C107.38 7.20 107.14 7.03 106.86 6.92C106.58 6.79 106.26 6.73 105.88 6.73C105.38 6.73 104.93 6.83 104.52 7.01C104.12 7.20 103.74 7.48 103.38 7.84L103.49 8.05C103.53 8.13 103.60 8.18 103.70 8.18C103.77 8.18 103.87 8.12 103.96 8.02C104.06 7.92 104.20 7.84 104.37 7.73C104.54 7.62 104.72 7.52 104.96 7.42C105.20 7.32 105.48 7.28 105.81 7.28C106.36 7.28 106.78 7.45 107.06 7.80C107.34 8.15 107.46 8.64 107.46 9.28L107.46 10.01C106.68 10.02 106.01 10.09 105.45 10.21C104.89 10.32 104.43 10.47 104.06 10.65C103.70 10.84 103.45 11.06 103.28 11.31C103.11 11.56 103.03 11.83 103.03 12.12C103.03 12.45 103.08 12.73 103.18 12.95C103.29 13.17 103.43 13.36 103.60 13.50C103.77 13.64 103.98 13.75 104.20 13.82C104.43 13.89 104.65 13.93 104.89 13.93C105.17 13.93 105.43 13.90 105.67 13.85C105.91 13.79 106.12 13.71 106.33 13.61C106.54 13.51 106.74 13.38 106.93 13.23C107.11 13.08 107.30 12.91 107.49 12.73L107.59 13.62C107.62 13.75 107.72 13.82 107.86 13.82L107.87 13.82L108.12 13.82L109.05 13.82L109.05 13.54C109.05 13.38 108.95 13.30 108.77 13.29ZM107.46 12.26C107.30 12.43 107.14 12.60 106.97 12.74C106.81 12.88 106.62 13.01 106.43 13.12C106.23 13.23 106.02 13.30 105.80 13.36C105.57 13.41 105.32 13.44 105.06 13.44C104.87 13.44 104.69 13.43 104.52 13.37C104.36 13.31 104.22 13.24 104.09 13.13C103.96 13.02 103.85 12.88 103.78 12.71C103.70 12.54 103.67 12.35 103.67 12.11C103.67 11.86 103.74 11.63 103.89 11.44C104.05 11.24 104.27 11.09 104.58 10.95C104.89 10.81 105.28 10.70 105.76 10.61C106.23 10.53 106.81 10.47 107.46 10.46ZM119.39 13.93C119.69 13.93 119.97 13.86 120.25 13.75C120.51 13.64 120.74 13.48 120.92 13.29L120.74 12.98C120.69 12.94 120.67 12.92 120.62 12.92C120.60 12.92 120.54 12.94 120.48 12.99C120.43 13.05 120.36 13.09 120.27 13.15C120.19 13.20 120.08 13.26 119.95 13.31C119.83 13.37 119.70 13.38 119.53 13.38C119.39 13.38 119.25 13.36 119.14 13.31C119.03 13.27 118.93 13.20 118.85 13.12C118.76 13.03 118.69 12.92 118.64 12.78C118.58 12.64 118.57 12.49 118.57 12.29L118.57 7.57L120.76 7.57L120.76 7.07L118.57 7.07L118.57 4.41L118.24 4.41C118.19 4.41 118.16 4.44 118.13 4.47C118.10 4.49 118.08 4.54 118.08 4.58L117.91 7.07L116.72 7.15L116.72 7.41C116.72 7.46 116.73 7.49 116.76 7.52C116.79 7.55 116.84 7.57 116.90 7.57L117.89 7.57L117.89 12.33C117.89 12.88 118.02 13.27 118.29 13.54C118.55 13.80 118.92 13.93 119.39 13.93ZM141.40 5.32C141.48 5.08 141.58 4.90 141.72 4.75C141.86 4.59 142.03 4.48 142.23 4.41C142.42 4.34 142.63 4.31 142.86 4.31C143.00 4.31 143.12 4.33 143.22 4.34C143.32 4.35 143.39 4.35 143.44 4.35C143.53 4.35 143.58 4.33 143.58 4.26L143.60 3.93C143.49 3.89 143.35 3.85 143.21 3.82C143.05 3.79 142.91 3.79 142.77 3.79C142.45 3.79 142.17 3.84 141.90 3.93C141.64 4.03 141.41 4.20 141.23 4.40C141.05 4.59 140.90 4.84 140.80 5.14C140.70 5.43 140.64 5.80 140.64 6.19L140.64 7.07L139.45 7.07L139.45 7.35C139.45 7.46 139.51 7.50 139.65 7.52L140.64 7.59L140.64 13.26C140.48 13.26 140.34 13.27 140.20 13.27C140.06 13.27 139.96 13.29 139.89 13.29L139.76 13.29C139.58 13.30 139.48 13.38 139.48 13.54L139.48 13.82L140.66 13.82L141.30 13.82L142.48 13.82L142.48 13.54C142.48 13.38 142.38 13.30 142.20 13.29L142.07 13.29C142.00 13.29 141.90 13.27 141.76 13.27C141.62 13.27 141.47 13.26 141.30 13.26L141.30 7.57L143.54 7.57L143.54 7.07L141.29 7.07L141.29 6.22C141.29 5.87 141.32 5.56 141.40 5.32ZM152.80 4.89C152.85 4.94 152.92 4.98 152.99 5.01C153.06 5.04 153.15 5.07 153.23 5.07C153.31 5.07 153.40 5.04 153.47 5.01C153.54 4.98 153.61 4.94 153.66 4.89C153.72 4.83 153.78 4.76 153.80 4.69C153.83 4.62 153.86 4.54 153.86 4.45C153.86 4.37 153.83 4.30 153.80 4.21C153.78 4.14 153.72 4.07 153.66 4.02C153.61 3.96 153.54 3.91 153.47 3.88C153.40 3.85 153.31 3.84 153.23 3.84C153.15 3.84 153.06 3.85 152.99 3.88C152.92 3.91 152.85 3.96 152.80 4.02C152.74 4.07 152.70 4.14 152.67 4.21C152.64 4.28 152.61 4.37 152.61 4.45C152.61 4.54 152.64 4.62 152.67 4.69C152.70 4.76 152.74 4.83 152.80 4.89ZM154.29 13.29L154.22 13.29L154.11 13.29C154.07 13.29 154.00 13.27 153.90 13.27C153.80 13.27 153.69 13.26 153.57 13.26L153.57 6.85L152.89 6.85L151.89 6.85L151.89 7.13C151.89 7.28 151.98 7.36 152.17 7.38L152.24 7.38C152.26 7.38 152.31 7.39 152.35 7.39L152.56 7.39C152.66 7.39 152.77 7.41 152.89 7.41L152.89 13.26C152.74 13.26 152.60 13.29 152.49 13.29L152.25 13.29L152.17 13.29C151.98 13.30 151.89 13.38 151.89 13.54L151.89 13.82L152.89 13.82L153.57 13.82L154.57 13.82L154.57 13.54C154.57 13.38 154.48 13.30 154.29 13.29ZM165.05 13.93C165.34 13.93 165.62 13.86 165.90 13.75C166.17 13.64 166.39 13.48 166.57 13.29L166.39 12.98C166.35 12.94 166.32 12.92 166.28 12.92C166.25 12.92 166.19 12.94 166.14 12.99C166.08 13.05 166.01 13.09 165.93 13.15C165.84 13.20 165.73 13.26 165.61 13.31C165.48 13.37 165.35 13.38 165.19 13.38C165.05 13.38 164.91 13.36 164.79 13.31C164.68 13.27 164.58 13.20 164.50 13.12C164.42 13.03 164.35 12.92 164.29 12.78C164.23 12.64 164.22 12.49 164.22 12.29L164.22 7.57L166.42 7.57L166.42 7.07L164.22 7.07L164.22 4.41L163.90 4.41C163.84 4.41 163.81 4.44 163.79 4.47C163.76 4.49 163.73 4.54 163.73 4.58L163.56 7.07L162.37 7.15L162.37 7.41C162.37 7.46 162.39 7.49 162.41 7.52C162.44 7.55 162.50 7.57 162.55 7.57L163.55 7.57L163.55 12.33C163.55 12.88 163.67 13.27 163.94 13.54C164.21 13.80 164.57 13.93 165.05 13.93ZM179.35 11.06C179.24 10.86 179.10 10.71 178.92 10.57C178.74 10.43 178.53 10.32 178.30 10.23C178.08 10.15 177.83 10.05 177.59 9.98C177.35 9.91 177.11 9.83 176.88 9.76C176.65 9.69 176.44 9.59 176.26 9.49C176.08 9.39 175.94 9.27 175.83 9.13C175.71 8.99 175.66 8.81 175.66 8.58C175.66 8.40 175.69 8.23 175.77 8.08C175.85 7.92 175.97 7.77 176.12 7.64C176.26 7.52 176.44 7.43 176.65 7.36C176.86 7.29 177.09 7.25 177.34 7.25C177.70 7.25 178.07 7.31 178.44 7.43C178.46 7.60 178.47 7.77 178.49 7.92C178.50 8.08 178.50 8.19 178.51 8.27C178.53 8.36 178.53 8.43 178.53 8.44C178.54 8.67 178.64 8.78 178.84 8.78L179.17 8.78L179.17 7.11C178.44 6.86 177.83 6.75 177.32 6.75C176.97 6.75 176.65 6.80 176.37 6.90C176.09 7.00 175.84 7.14 175.64 7.31C175.45 7.48 175.29 7.69 175.18 7.91C175.07 8.13 175.03 8.37 175.03 8.62C175.03 8.92 175.08 9.16 175.20 9.35C175.31 9.55 175.45 9.70 175.63 9.84C175.81 9.98 176.01 10.09 176.25 10.18C176.47 10.26 176.71 10.35 176.96 10.42C177.20 10.49 177.44 10.57 177.67 10.64C177.90 10.71 178.11 10.81 178.29 10.92C178.47 11.03 178.63 11.16 178.74 11.31C178.85 11.47 178.91 11.65 178.91 11.89C178.91 12.10 178.86 12.29 178.79 12.49C178.71 12.68 178.60 12.84 178.44 12.98C178.29 13.12 178.11 13.23 177.88 13.31C177.66 13.40 177.41 13.44 177.11 13.44C176.58 13.44 176.13 13.37 175.76 13.22C175.74 13.03 175.73 12.87 175.71 12.71C175.70 12.56 175.70 12.43 175.69 12.35C175.67 12.26 175.67 12.19 175.67 12.18C175.66 11.96 175.56 11.84 175.36 11.84L175.03 11.84L175.03 13.54C175.70 13.79 176.39 13.93 177.09 13.93C177.48 13.93 177.81 13.87 178.12 13.76C178.43 13.65 178.68 13.50 178.89 13.30C179.10 13.10 179.26 12.89 179.37 12.63C179.48 12.36 179.54 12.08 179.54 11.77C179.54 11.49 179.47 11.26 179.35 11.06ZM205.37 13.29L205.28 13.29L205.18 13.29C205.14 13.29 205.07 13.27 204.97 13.27C204.88 13.27 204.75 13.26 204.62 13.26L204.62 9.37C204.62 8.96 204.58 8.60 204.48 8.27C204.39 7.95 204.25 7.67 204.05 7.45C203.85 7.22 203.62 7.06 203.32 6.93C203.03 6.80 202.69 6.75 202.31 6.75C201.80 6.75 201.33 6.86 200.91 7.10C200.51 7.34 200.14 7.66 199.82 8.05L199.82 3.64L199.15 3.64L198.14 3.64L198.14 3.91C198.14 4.06 198.24 4.14 198.42 4.16L198.49 4.16C198.52 4.16 198.56 4.17 198.60 4.17L198.81 4.17C198.91 4.17 199.02 4.19 199.15 4.19L199.15 13.26C199.00 13.26 198.86 13.29 198.74 13.29L198.51 13.29L198.42 13.29C198.24 13.30 198.14 13.38 198.14 13.54L198.14 13.82L199.15 13.82L199.82 13.82L200.83 13.82L200.83 13.54C200.83 13.38 200.73 13.30 200.55 13.29L200.48 13.29L200.37 13.29C200.33 13.29 200.26 13.27 200.16 13.27C200.06 13.27 199.95 13.26 199.82 13.26L199.82 8.60C200.13 8.19 200.48 7.87 200.87 7.63C201.26 7.39 201.68 7.28 202.15 7.28C202.76 7.28 203.22 7.46 203.52 7.83C203.81 8.20 203.97 8.71 203.97 9.37L203.97 13.82L204.62 13.82L205.63 13.82L205.63 13.54C205.63 13.38 205.55 13.30 205.37 13.29ZM216.92 6.73C216.41 6.73 215.96 6.83 215.57 7.00C215.18 7.17 214.84 7.41 214.56 7.71C214.28 8.02 214.09 8.40 213.95 8.85C213.81 9.30 213.72 9.79 213.72 10.33C213.72 10.88 213.81 11.37 213.95 11.80C214.09 12.24 214.28 12.63 214.56 12.94C214.84 13.24 215.18 13.48 215.57 13.65C215.96 13.82 216.41 13.90 216.92 13.90C217.42 13.90 217.85 13.82 218.25 13.65C218.64 13.48 218.97 13.24 219.24 12.94C219.51 12.63 219.73 12.24 219.87 11.80C220.01 11.37 220.08 10.88 220.08 10.33C220.08 9.79 220.01 9.30 219.87 8.85C219.73 8.40 219.51 8.02 219.24 7.71C218.97 7.41 218.64 7.17 218.25 7.00C217.85 6.83 217.42 6.73 216.92 6.73ZM216.92 13.38C216.50 13.38 216.13 13.31 215.82 13.17C215.52 13.03 215.25 12.82 215.04 12.56C214.83 12.29 214.69 11.97 214.58 11.59C214.47 11.21 214.42 10.79 214.42 10.33C214.42 9.87 214.47 9.45 214.58 9.07C214.69 8.69 214.83 8.37 215.04 8.11C215.25 7.84 215.52 7.62 215.82 7.48C216.13 7.34 216.50 7.27 216.92 7.27C217.34 7.27 217.69 7.34 217.99 7.48C218.30 7.62 218.57 7.84 218.78 8.11C218.99 8.37 219.14 8.69 219.24 9.07C219.34 9.45 219.39 9.87 219.39 10.33C219.39 10.79 219.34 11.21 219.24 11.59C219.14 11.97 218.99 12.29 218.78 12.56C218.57 12.82 218.30 13.03 217.99 13.17C217.69 13.31 217.34 13.38 216.92 13.38ZM239.12 13.29L239.04 13.29L238.94 13.29C238.90 13.29 238.83 13.27 238.73 13.27C238.63 13.27 238.50 13.26 238.38 13.26L238.38 9.37C238.38 8.95 238.32 8.57 238.22 8.25C238.13 7.92 237.99 7.64 237.79 7.42C237.59 7.20 237.36 7.03 237.08 6.92C236.80 6.80 236.50 6.75 236.15 6.75C235.91 6.75 235.66 6.78 235.44 6.85C235.21 6.92 235.00 7.01 234.81 7.15C234.61 7.29 234.43 7.46 234.28 7.67C234.12 7.88 234.01 8.13 233.93 8.43C233.81 7.90 233.62 7.48 233.31 7.18C233.00 6.89 232.60 6.75 232.09 6.75C231.87 6.75 231.66 6.76 231.46 6.83C231.27 6.89 231.08 6.99 230.90 7.10C230.73 7.21 230.57 7.36 230.41 7.52C230.26 7.67 230.12 7.84 229.98 8.04L229.92 7.03C229.91 6.92 229.84 6.86 229.71 6.86L229.35 6.86L228.34 6.86L228.34 7.13C228.34 7.28 228.42 7.36 228.61 7.38L228.69 7.38C228.72 7.38 228.75 7.39 228.79 7.39L229.00 7.39C229.10 7.39 229.22 7.41 229.35 7.41L229.35 13.26C229.18 13.26 229.04 13.29 228.93 13.29L228.70 13.29L228.61 13.29C228.42 13.30 228.34 13.38 228.34 13.54L228.34 13.82L229.35 13.82L230.01 13.82L231.01 13.82L231.01 13.54C231.01 13.38 230.93 13.30 230.75 13.29L230.66 13.29L230.57 13.29C230.52 13.29 230.45 13.27 230.36 13.27C230.26 13.27 230.13 13.26 230.01 13.26L230.01 8.55C230.26 8.15 230.55 7.84 230.87 7.62C231.20 7.39 231.55 7.28 231.92 7.28C232.44 7.28 232.83 7.45 233.10 7.81C233.37 8.18 233.51 8.69 233.51 9.37L233.51 13.82L234.18 13.82L234.18 13.82L235.19 13.82L235.19 13.54C235.19 13.38 235.09 13.30 234.91 13.29L234.84 13.29L234.72 13.29C234.68 13.29 234.61 13.27 234.51 13.27C234.42 13.27 234.30 13.26 234.18 13.26L234.18 9.37C234.18 9.02 234.22 8.72 234.32 8.46C234.42 8.19 234.56 7.97 234.72 7.80C234.89 7.63 235.09 7.49 235.31 7.41C235.54 7.32 235.77 7.28 236.01 7.28C236.56 7.28 236.98 7.46 237.27 7.81C237.57 8.18 237.72 8.68 237.72 9.37L237.72 13.82L238.38 13.82L239.39 13.82L239.39 13.54C239.39 13.38 239.30 13.30 239.12 13.29ZM250.66 6.73C250.17 6.73 249.72 6.83 249.33 7.00C248.93 7.17 248.61 7.41 248.35 7.71C248.08 8.02 247.87 8.39 247.73 8.81C247.59 9.23 247.51 9.69 247.51 10.19C247.51 10.78 247.59 11.31 247.74 11.77C247.90 12.24 248.11 12.61 248.39 12.94C248.67 13.26 249.00 13.50 249.40 13.66C249.79 13.83 250.22 13.90 250.70 13.90C250.96 13.90 251.23 13.89 251.48 13.83C251.73 13.78 251.99 13.71 252.21 13.62C252.43 13.54 252.64 13.44 252.83 13.31C253.01 13.19 253.16 13.06 253.27 12.92L253.09 12.70C253.06 12.66 253.01 12.63 252.95 12.63C252.91 12.63 252.83 12.66 252.73 12.74C252.63 12.82 252.49 12.91 252.31 13.01C252.14 13.10 251.92 13.17 251.66 13.26C251.41 13.34 251.10 13.38 250.75 13.38C250.36 13.38 250.01 13.31 249.69 13.17C249.37 13.03 249.10 12.84 248.88 12.57C248.65 12.31 248.49 11.97 248.36 11.58C248.23 11.19 248.18 10.71 248.18 10.19L248.18 10.07L253.20 10.07C253.27 10.07 253.32 10.05 253.34 10.01C253.37 9.97 253.40 9.90 253.40 9.80C253.40 9.31 253.33 8.88 253.19 8.50C253.05 8.12 252.87 7.78 252.62 7.53C252.38 7.28 252.08 7.08 251.75 6.94C251.41 6.80 251.05 6.73 250.66 6.73ZM250.67 7.24C250.99 7.24 251.27 7.29 251.54 7.41C251.80 7.52 252.03 7.67 252.21 7.88C252.39 8.09 252.55 8.33 252.64 8.62C252.74 8.92 252.80 9.25 252.80 9.63L248.21 9.63C248.25 9.27 248.33 8.93 248.46 8.64C248.58 8.34 248.75 8.09 248.96 7.88C249.17 7.67 249.42 7.52 249.70 7.41C249.98 7.29 250.31 7.24 250.67 7.24Z"></path></g></svg>