<svg data-v-423bf9ae="" xmlns="http://www.w3.org/2000/svg" viewBox="0 0 329.554457046532 60" class="font"><!----><!----><!----><g data-v-423bf9ae="" id="77a4b7bb-a810-423a-94b7-c8d39976ff74" fill="black" transform="matrix(4.950495096249109,0,0,4.950495096249109,2.6237656677976418,-11.386139200570689)"><path d="M6.34 5.18L6.34 5.18L6.34 5.18Q6.59 5.01 7.64 4.25L7.64 4.25L7.64 4.25Q8.64 4.96 10.40 11.50L10.40 11.50L10.40 11.50Q10.52 11.96 10.59 12.23L10.59 12.23L10.59 12.23Q10.72 11.92 10.94 11.43L10.94 11.43L10.94 11.43Q11.17 10.95 11.43 10.38L11.43 10.38L11.43 10.38Q11.70 9.82 11.97 9.21L11.97 9.21L11.97 9.21Q12.24 8.60 12.46 8.04L12.46 8.04L12.46 8.04Q12.95 6.79 12.95 6.28L12.95 6.28L12.95 6.28Q12.95 5.49 12.44 5.14L12.44 5.14L12.44 5.14Q12.27 5.02 12.09 5.02L12.09 5.02L12.09 5.02Q11.79 5.02 11.54 5.14L11.54 5.14L11.54 5.14Q11.76 5.02 11.97 4.85L11.97 4.85L11.97 4.85Q12.17 4.68 12.37 4.51L12.37 4.51L12.37 4.51Q12.88 4.11 13.31 4.11L13.31 4.11L13.31 4.11Q13.75 4.11 14.03 4.46L14.03 4.46L14.03 4.46Q14.29 4.77 14.29 5.23L14.29 5.23L14.29 5.23Q14.29 6.05 12.25 10.57L12.25 10.57L12.25 10.57Q11.55 12.11 11.46 12.34L11.46 12.34L11.46 12.34Q11.38 12.56 11.29 12.77L11.29 12.77L11.29 12.77Q11.07 13.25 10.97 13.39L10.97 13.39L10.97 13.39Q10.87 13.54 10.69 13.67L10.69 13.67L10.69 13.67Q10.51 13.79 10.29 13.94L10.29 13.94L10.29 13.94Q10.07 14.09 9.86 14.22L9.86 14.22L9.86 14.22Q9.66 14.36 9.58 14.42L9.58 14.42L9.58 14.42Q9.37 13.61 9.17 12.80L9.17 12.80L9.17 12.80Q8.97 12.00 8.75 11.20L8.75 11.20L8.75 11.20Q8.29 9.50 7.76 8.04L7.76 8.04L7.76 8.04Q7.28 9.34 6.57 10.90L6.57 10.90L6.57 10.90Q5.86 12.46 5.70 12.83L5.70 12.83L5.70 12.83Q5.54 13.21 5.34 13.49L5.34 13.49L5.34 13.49Q5.26 13.60 4.68 13.98L4.68 13.98L4.68 13.98Q4.09 14.36 4.01 14.42L4.01 14.42L4.01 14.42Q3.94 14.10 3.81 13.54L3.81 13.54L3.81 13.54Q3.69 12.97 3.53 12.26L3.53 12.26L3.53 12.26Q3.36 11.54 3.16 10.73L3.16 10.73L3.16 10.73Q2.95 9.93 2.71 9.13L2.71 9.13L2.71 9.13Q2.46 8.33 2.18 7.59L2.18 7.59L2.18 7.59Q1.90 6.86 1.59 6.30L1.59 6.30L1.59 6.30Q0.90 5.08 0.21 5.08L0.21 5.08L0.21 5.08Q-0.14 5.08-0.53 5.30L-0.53 5.30L-0.53 5.30Q0.14 4.61 1.07 4.25L1.07 4.25L1.07 4.25Q1.37 4.13 1.60 4.13L1.60 4.13L1.60 4.13Q2.19 4.13 2.71 4.95L2.71 4.95L2.71 4.95Q3.16 5.69 3.47 6.57L3.47 6.57L3.47 6.57Q3.77 7.46 3.96 8.06L3.96 8.06L3.96 8.06Q4.14 8.67 4.31 9.27L4.31 9.27L4.31 9.27Q4.47 9.88 4.61 10.43L4.61 10.43L4.61 10.43Q4.81 11.22 5.04 12.24L5.04 12.24L5.04 12.24Q5.20 11.88 5.40 11.44L5.40 11.44L5.40 11.44Q5.61 10.99 5.81 10.51L5.81 10.51L5.81 10.51Q6.02 10.03 6.22 9.52L6.22 9.52L6.22 9.52Q6.42 9.02 6.58 8.52L6.58 8.52L6.58 8.52Q6.92 7.42 6.92 6.73L6.92 6.73L6.92 6.73Q6.92 5.73 6.34 5.18ZM20.31 8.18L20.31 8.18L20.31 8.18Q20.66 8.57 20.85 9.08L20.85 9.08L20.85 9.08Q21.05 9.59 21.05 10.10L21.05 10.10L21.05 10.10Q21.05 10.62 20.90 11.10L20.90 11.10L20.90 11.10Q20.75 11.59 20.48 12.04L20.48 12.04L20.48 12.04Q20.21 12.50 19.84 12.89L19.84 12.89L19.84 12.89Q19.48 13.28 19.04 13.58L19.04 13.58L19.04 13.58Q18.11 14.20 17.16 14.20L17.16 14.20L17.16 14.20Q16.04 14.20 15.26 13.33L15.26 13.33L15.26 13.33Q14.51 12.50 14.51 11.38L14.51 11.38L14.51 11.38Q14.51 10.42 15.09 9.45L15.09 9.45L15.09 9.45Q15.96 7.99 17.45 7.48L17.45 7.48L17.45 7.48Q17.93 7.31 18.46 7.31L18.46 7.31L18.46 7.31Q19.00 7.31 19.48 7.54L19.48 7.54L19.48 7.54Q19.96 7.78 20.31 8.18ZM17.08 8.22L17.08 8.22L17.08 8.22Q16.39 8.22 16.08 8.89L16.08 8.89L16.08 8.89Q15.83 9.41 15.83 10.06L15.83 10.06L15.83 10.06Q15.83 10.72 16.01 11.28L16.01 11.28L16.01 11.28Q16.18 11.85 16.52 12.29L16.52 12.29L16.52 12.29Q17.28 13.29 18.48 13.29L18.48 13.29L18.48 13.29Q19.17 13.29 19.49 12.59L19.49 12.59L19.49 12.59Q19.71 12.07 19.71 11.40L19.71 11.40L19.71 11.40Q19.71 10.08 18.98 9.15L18.98 9.15L18.98 9.15Q18.25 8.22 17.08 8.22ZM27.84 8.18L27.84 8.18L27.84 8.18Q28.19 8.57 28.39 9.08L28.39 9.08L28.39 9.08Q28.58 9.59 28.58 10.10L28.58 10.10L28.58 10.10Q28.58 10.62 28.43 11.10L28.43 11.10L28.43 11.10Q28.28 11.59 28.01 12.04L28.01 12.04L28.01 12.04Q27.74 12.50 27.37 12.89L27.37 12.89L27.37 12.89Q27.01 13.28 26.57 13.58L26.57 13.58L26.57 13.58Q25.64 14.20 24.69 14.20L24.69 14.20L24.69 14.20Q23.58 14.20 22.80 13.33L22.80 13.33L22.80 13.33Q22.04 12.50 22.04 11.38L22.04 11.38L22.04 11.38Q22.04 10.42 22.62 9.45L22.62 9.45L22.62 9.45Q23.49 7.99 24.99 7.48L24.99 7.48L24.99 7.48Q25.46 7.31 26.00 7.31L26.00 7.31L26.00 7.31Q26.53 7.31 27.01 7.54L27.01 7.54L27.01 7.54Q27.49 7.78 27.84 8.18ZM24.61 8.22L24.61 8.22L24.61 8.22Q23.93 8.22 23.61 8.89L23.61 8.89L23.61 8.89Q23.37 9.41 23.37 10.06L23.37 10.06L23.37 10.06Q23.37 10.72 23.54 11.28L23.54 11.28L23.54 11.28Q23.71 11.85 24.06 12.29L24.06 12.29L24.06 12.29Q24.81 13.29 26.01 13.29L26.01 13.29L26.01 13.29Q26.71 13.29 27.02 12.59L27.02 12.59L27.02 12.59Q27.25 12.07 27.25 11.40L27.25 11.40L27.25 11.40Q27.25 10.08 26.51 9.15L26.51 9.15L26.51 9.15Q25.78 8.22 24.61 8.22ZM31.86 7.86L31.86 7.86Q32.33 7.59 32.86 7.45L32.86 7.45L32.86 7.45Q33.39 7.30 33.75 7.30L33.75 7.30L33.75 7.30Q34.11 7.30 34.38 7.35L34.38 7.35L34.38 5.11L34.38 5.11Q34.38 4.38 34.12 4.14L34.12 4.14L34.12 4.14Q34.00 4.03 33.82 4.03L33.82 4.03L33.82 4.03Q33.61 4.03 33.20 4.13L33.20 4.13L33.20 4.13Q34.91 2.82 35.71 2.41L35.71 2.41L35.71 12.19L35.71 12.19Q35.71 12.74 35.83 12.92L35.83 12.92L35.83 12.92Q36.03 13.26 36.54 13.26L36.54 13.26L36.54 13.26Q36.74 13.26 36.94 13.22L36.94 13.22L36.94 13.22Q36.74 13.38 36.55 13.55L36.55 13.55L36.55 13.55Q36.35 13.72 36.14 13.86L36.14 13.86L36.14 13.86Q35.66 14.19 35.29 14.19L35.29 14.19L35.29 14.19Q34.92 14.19 34.76 14.12L34.76 14.12L34.76 14.12Q34.60 14.05 34.51 13.92L34.51 13.92L34.51 13.92Q34.37 13.73 34.37 13.18L34.37 13.18L34.37 13.18Q32.97 14.22 32.12 14.22L32.12 14.22L32.12 14.22Q30.87 14.22 30.21 13.38L30.21 13.38L30.21 13.38Q29.59 12.62 29.59 11.33L29.59 11.33L29.59 11.33Q29.59 10.28 30.25 9.32L30.25 9.32L30.25 9.32Q30.86 8.42 31.86 7.86L31.86 7.86ZM34.38 12.60L34.38 9.21L34.38 9.21Q34.08 8.72 33.58 8.47L33.58 8.47L33.58 8.47Q33.09 8.22 32.56 8.22L32.56 8.22L32.56 8.22Q32.03 8.22 31.71 8.40L31.71 8.40L31.71 8.40Q31.40 8.58 31.22 8.88L31.22 8.88L31.22 8.88Q30.91 9.40 30.91 10.18L30.91 10.18L30.91 10.18Q30.91 10.96 31.05 11.49L31.05 11.49L31.05 11.49Q31.19 12.02 31.48 12.43L31.48 12.43L31.48 12.43Q32.12 13.30 33.36 13.30L33.36 13.30L33.36 13.30Q33.63 13.30 33.89 13.14L33.89 13.14L33.89 13.14Q34.38 12.85 34.38 12.60L34.38 12.60ZM38.16 13.24L38.16 4.94L38.16 4.94Q38.16 3.92 37.56 3.92L37.56 3.92L37.56 3.92Q37.38 3.92 36.97 4.02L36.97 4.02L36.97 4.02Q37.25 3.81 37.56 3.57L37.56 3.57L37.56 3.57Q37.87 3.34 38.19 3.10L38.19 3.10L38.19 3.10Q38.89 2.62 39.49 2.30L39.49 2.30L39.48 8.58L39.48 8.58Q40.25 7.90 41.19 7.57L41.19 7.57L41.19 7.57Q41.50 7.46 41.74 7.46L41.74 7.46L41.74 7.46Q41.98 7.46 42.17 7.55L42.17 7.55L42.17 7.55Q42.36 7.63 42.49 7.77L42.49 7.77L42.49 7.77Q42.79 8.07 42.79 8.46L42.79 8.46L42.79 8.46Q42.79 8.84 42.59 9.15L42.59 9.15L42.59 9.15Q42.40 9.46 42.12 9.73L42.12 9.73L42.12 9.73Q41.73 10.13 40.95 10.63L40.95 10.63L40.95 10.63Q41.05 10.73 41.26 10.96L41.26 10.96L41.26 10.96Q41.47 11.20 41.73 11.48L41.73 11.48L41.73 11.48Q41.99 11.77 42.29 12.08L42.29 12.08L42.29 12.08Q42.59 12.39 42.85 12.64L42.85 12.64L42.85 12.64Q43.47 13.22 43.66 13.22L43.66 13.22L43.66 13.22Q44.14 13.22 44.60 12.95L44.60 12.95L44.60 12.95Q44.02 13.76 43.16 14.09L43.16 14.09L43.16 14.09Q42.88 14.20 42.66 14.20L42.66 14.20L42.66 14.20Q42.44 14.20 42.32 14.15L42.32 14.15L42.32 14.15Q42.19 14.10 42.08 14.03L42.08 14.03L42.08 14.03Q41.85 13.88 41.47 13.49L41.47 13.49L41.47 13.49Q40.67 12.69 39.48 11.41L39.48 11.41L39.48 12.11L39.48 12.11Q39.48 12.27 39.48 12.47L39.48 12.47L39.48 12.47Q39.48 12.67 39.52 12.86L39.52 12.86L39.52 12.86Q39.61 13.30 40.00 13.30L40.00 13.30L40.00 13.30Q40.14 13.30 40.30 13.23L40.30 13.23L40.30 13.23Q40.15 13.35 39.97 13.52L39.97 13.52L39.97 13.52Q39.78 13.69 39.57 13.85L39.57 13.85L39.57 13.85Q39.06 14.23 38.73 14.23L38.73 14.23L38.73 14.23Q38.16 14.23 38.16 13.24L38.16 13.24ZM40.45 8.39L40.45 8.39L40.45 8.39Q39.48 8.39 39.48 10.86L39.48 10.86L39.48 11.22L39.48 11.22Q40.74 10.72 41.25 9.97L41.25 9.97L41.25 9.97Q41.46 9.68 41.46 9.40L41.46 9.40L41.46 9.40Q41.46 9.13 41.38 8.95L41.38 8.95L41.38 8.95Q41.30 8.78 41.16 8.65L41.16 8.65L41.16 8.65Q40.86 8.39 40.45 8.39ZM50.57 8.18L50.57 8.18L50.57 8.18Q50.91 8.57 51.11 9.08L51.11 9.08L51.11 9.08Q51.30 9.59 51.30 10.10L51.30 10.10L51.30 10.10Q51.30 10.62 51.15 11.10L51.15 11.10L51.15 11.10Q51.00 11.59 50.73 12.04L50.73 12.04L50.73 12.04Q50.46 12.50 50.10 12.89L50.10 12.89L50.10 12.89Q49.73 13.28 49.29 13.58L49.29 13.58L49.29 13.58Q48.36 14.20 47.41 14.20L47.41 14.20L47.41 14.20Q46.30 14.20 45.52 13.33L45.52 13.33L45.52 13.33Q44.76 12.50 44.76 11.38L44.76 11.38L44.76 11.38Q44.76 10.42 45.34 9.45L45.34 9.45L45.34 9.45Q46.21 7.99 47.71 7.48L47.71 7.48L47.71 7.48Q48.19 7.31 48.72 7.31L48.72 7.31L48.72 7.31Q49.25 7.31 49.73 7.54L49.73 7.54L49.73 7.54Q50.22 7.78 50.57 8.18ZM47.33 8.22L47.33 8.22L47.33 8.22Q46.65 8.22 46.33 8.89L46.33 8.89L46.33 8.89Q46.09 9.41 46.09 10.06L46.09 10.06L46.09 10.06Q46.09 10.72 46.26 11.28L46.26 11.28L46.26 11.28Q46.44 11.85 46.78 12.29L46.78 12.29L46.78 12.29Q47.54 13.29 48.73 13.29L48.73 13.29L48.73 13.29Q49.43 13.29 49.75 12.59L49.75 12.59L49.75 12.59Q49.97 12.07 49.97 11.40L49.97 11.40L49.97 11.40Q49.97 10.08 49.24 9.15L49.24 9.15L49.24 9.15Q48.50 8.22 47.33 8.22ZM58.10 8.18L58.10 8.18L58.10 8.18Q58.45 8.57 58.64 9.08L58.64 9.08L58.64 9.08Q58.84 9.59 58.84 10.10L58.84 10.10L58.84 10.10Q58.84 10.62 58.69 11.10L58.69 11.10L58.69 11.10Q58.54 11.59 58.27 12.04L58.27 12.04L58.27 12.04Q58.00 12.50 57.63 12.89L57.63 12.89L57.63 12.89Q57.26 13.28 56.83 13.58L56.83 13.58L56.83 13.58Q55.90 14.20 54.95 14.20L54.95 14.20L54.95 14.20Q53.83 14.20 53.05 13.33L53.05 13.33L53.05 13.33Q52.29 12.50 52.29 11.38L52.29 11.38L52.29 11.38Q52.29 10.42 52.88 9.45L52.88 9.45L52.88 9.45Q53.74 7.99 55.24 7.48L55.24 7.48L55.24 7.48Q55.72 7.31 56.25 7.31L56.25 7.31L56.25 7.31Q56.79 7.31 57.27 7.54L57.27 7.54L57.27 7.54Q57.75 7.78 58.10 8.18ZM54.87 8.22L54.87 8.22L54.87 8.22Q54.18 8.22 53.87 8.89L53.87 8.89L53.87 8.89Q53.62 9.41 53.62 10.06L53.62 10.06L53.62 10.06Q53.62 10.72 53.80 11.28L53.80 11.28L53.80 11.28Q53.97 11.85 54.31 12.29L54.31 12.29L54.31 12.29Q55.07 13.29 56.27 13.29L56.27 13.29L56.27 13.29Q56.96 13.29 57.28 12.59L57.28 12.59L57.28 12.59Q57.50 12.07 57.50 11.40L57.50 11.40L57.50 11.40Q57.50 10.08 56.77 9.15L56.77 9.15L56.77 9.15Q56.03 8.22 54.87 8.22ZM61.94 8.22L61.94 11.96L61.94 11.96Q61.94 12.65 61.51 13.15L61.51 13.15L63.52 13.15L63.52 13.15Q63.44 13.21 63.25 13.37L63.25 13.37L63.25 13.37Q63.07 13.52 62.86 13.69L62.86 13.69L62.86 13.69Q62.33 14.08 62.19 14.08L62.19 14.08L60.04 14.08L60.04 14.08Q60.38 13.81 60.47 13.54L60.47 13.54L60.47 13.54Q60.61 13.15 60.61 12.67L60.61 12.67L60.61 8.22L59.75 8.22L60.61 7.55L60.61 7.55Q60.61 6.13 60.69 5.68L60.69 5.68L60.69 5.68Q60.76 5.23 60.89 4.91L60.89 4.91L60.89 4.91Q61.02 4.59 61.26 4.29L61.26 4.29L61.26 4.29Q61.71 3.71 62.75 3.03L62.75 3.03L62.75 3.03Q63.72 2.38 64.59 2.38L64.59 2.38L64.59 2.38Q65.08 2.38 65.72 2.64L65.72 2.64L65.72 2.64Q66.04 2.77 66.04 2.91L66.04 2.91L66.04 2.91Q66.04 3.09 65.41 3.57L65.41 3.57L65.41 3.57Q64.83 4.01 64.57 4.04L64.57 4.04L64.57 4.04Q64.70 3.90 64.70 3.82L64.70 3.82L64.70 3.82Q64.70 3.73 64.51 3.64L64.51 3.64L64.51 3.64Q64.32 3.54 64.07 3.47L64.07 3.47L64.07 3.47Q63.53 3.30 63.30 3.30L63.30 3.30L63.30 3.30Q62.82 3.30 62.54 3.39L62.54 3.39L62.54 3.39Q61.97 4.17 61.95 5.69L61.95 5.69L61.95 5.69Q61.94 6.10 61.94 6.47L61.94 6.47L61.94 7.29L64.50 7.29L64.50 7.29Q64.41 7.31 64.05 7.63L64.05 7.63L64.05 7.63Q63.36 8.22 63.17 8.22L63.17 8.22L61.94 8.22Z"></path></g><!----><!----></svg>