<svg width="128" height="128" viewBox="0 0 128 128" fill="none" xmlns="http://www.w3.org/2000/svg">
<path d="M94.1848 24H33.8156C30.5749 24 27.9198 26.5734 27.8186 29.8126L27.4946 40.1802C25.787 40.2434 24.167 40.7999 23.0002 41.5C20.5002 43 18.0002 45 20.0002 57C22.0002 69 24.0003 77 30.0003 83.5C32.5544 86.2639 36.3718 88 40.4445 88H87.5559C91.6286 88 95.4461 86.2639 98.0003 83.5C104 77 105.773 69 107.773 57C109.773 45 107.273 43 104.773 41.5C103.659 40.8311 102.13 40.2931 100.506 40.1915L100.182 29.8126C100.081 26.5734 97.4255 24 94.1848 24Z" fill="#D5DE68"/>
<path d="M94.1846 24H33.8155C30.5747 24 27.9196 26.5734 27.8184 29.8126L27.4932 40.2205C30.3288 39.4803 36.5 42.4 38.5 60L43 57H85L89.5 60C89.838 52.9803 92.5125 39.1969 100.507 40.2205L100.182 29.8126C100.08 26.5734 97.4254 24 94.1846 24Z" fill="#A8B13C"/>
<path d="M89.1846 24H38.8154C35.5747 24 32.9196 26.5734 32.8184 29.8126L33 42C36 45 37 51.5 38.4999 60L42.9999 57H85L89.5 60C90 52 92.5 44 95 42L95.1816 29.8126C95.0804 26.5734 92.4253 24 89.1846 24Z" fill="#C2CC4D"/>
<path d="M85 57H43L35 62.5H93L85 57Z" fill="#BDC753"/>
<path d="M33 66C33 63.7909 34.7909 62 37 62H91C93.2091 62 95 63.7909 95 66V72C95 74.2091 93.2091 76 91 76H37C34.7909 76 33 74.2091 33 72V66Z" fill="#F0FA7D"/>
<path d="M93 108L90 88H83.5L89.5 108H93Z" fill="#CA956F"/>
<path d="M37 108L40 88H46.5L40.5 108H37Z" fill="#CA956F"/>
<path d="M39.0002 83.5C39.0002 83.2239 39.2241 83 39.5002 83H87.0002C87.2764 83 87.5002 83.2239 87.5002 83.5C87.5002 83.7761 87.2764 84 87.0002 84H39.5002C39.2241 84 39.0002 83.7761 39.0002 83.5Z" fill="black"/>
<path fill-rule="evenodd" clip-rule="evenodd" d="M46.5002 34C46.5002 33.1716 47.1718 32.5 48.0002 32.5C48.8287 32.5 49.5002 33.1716 49.5002 34C49.5002 34.8284 48.8287 35.5 48.0002 35.5C47.1718 35.5 46.5002 34.8284 46.5002 34ZM48.0002 33.5C47.7241 33.5 47.5002 33.7239 47.5002 34C47.5002 34.2761 47.7241 34.5 48.0002 34.5C48.2764 34.5 48.5002 34.2761 48.5002 34C48.5002 33.7239 48.2764 33.5 48.0002 33.5Z" fill="black"/>
<path fill-rule="evenodd" clip-rule="evenodd" d="M48.0002 41.5C47.1718 41.5 46.5002 42.1716 46.5002 43C46.5002 43.8284 47.1718 44.5 48.0002 44.5C48.8287 44.5 49.5002 43.8284 49.5002 43C49.5002 42.1716 48.8287 41.5 48.0002 41.5ZM47.5002 43C47.5002 42.7239 47.7241 42.5 48.0002 42.5C48.2764 42.5 48.5002 42.7239 48.5002 43C48.5002 43.2761 48.2764 43.5 48.0002 43.5C47.7241 43.5 47.5002 43.2761 47.5002 43Z" fill="black"/>
<path fill-rule="evenodd" clip-rule="evenodd" d="M57.5002 34C57.5002 33.1716 58.1718 32.5 59.0002 32.5C59.8287 32.5 60.5002 33.1716 60.5002 34C60.5002 34.8284 59.8287 35.5 59.0002 35.5C58.1718 35.5 57.5002 34.8284 57.5002 34ZM59.0002 33.5C58.7241 33.5 58.5002 33.7239 58.5002 34C58.5002 34.2761 58.7241 34.5 59.0002 34.5C59.2764 34.5 59.5002 34.2761 59.5002 34C59.5002 33.7239 59.2764 33.5 59.0002 33.5Z" fill="black"/>
<path fill-rule="evenodd" clip-rule="evenodd" d="M59.0002 42.5C58.1718 42.5 57.5002 43.1716 57.5002 44C57.5002 44.8284 58.1718 45.5 59.0002 45.5C59.8287 45.5 60.5002 44.8284 60.5002 44C60.5002 43.1716 59.8287 42.5 59.0002 42.5ZM58.5002 44C58.5002 43.7239 58.7241 43.5 59.0002 43.5C59.2764 43.5 59.5002 43.7239 59.5002 44C59.5002 44.2761 59.2764 44.5 59.0002 44.5C58.7241 44.5 58.5002 44.2761 58.5002 44Z" fill="black"/>
<path fill-rule="evenodd" clip-rule="evenodd" d="M67.5002 34C67.5002 33.1716 68.1718 32.5 69.0002 32.5C69.8287 32.5 70.5002 33.1716 70.5002 34C70.5002 34.8284 69.8287 35.5 69.0002 35.5C68.1718 35.5 67.5002 34.8284 67.5002 34ZM69.0002 33.5C68.7241 33.5 68.5002 33.7239 68.5002 34C68.5002 34.2761 68.7241 34.5 69.0002 34.5C69.2764 34.5 69.5002 34.2761 69.5002 34C69.5002 33.7239 69.2764 33.5 69.0002 33.5Z" fill="black"/>
<path fill-rule="evenodd" clip-rule="evenodd" d="M69.0002 42.5C68.1718 42.5 67.5002 43.1716 67.5002 44C67.5002 44.8284 68.1718 45.5 69.0002 45.5C69.8287 45.5 70.5002 44.8284 70.5002 44C70.5002 43.1716 69.8287 42.5 69.0002 42.5ZM68.5002 44C68.5002 43.7239 68.7241 43.5 69.0002 43.5C69.2764 43.5 69.5002 43.7239 69.5002 44C69.5002 44.2761 69.2764 44.5 69.0002 44.5C68.7241 44.5 68.5002 44.2761 68.5002 44Z" fill="black"/>
<path fill-rule="evenodd" clip-rule="evenodd" d="M78.5002 34C78.5002 33.1716 79.1718 32.5 80.0002 32.5C80.8287 32.5 81.5002 33.1716 81.5002 34C81.5002 34.8284 80.8287 35.5 80.0002 35.5C79.1718 35.5 78.5002 34.8284 78.5002 34ZM80.0002 33.5C79.7241 33.5 79.5002 33.7239 79.5002 34C79.5002 34.2761 79.7241 34.5 80.0002 34.5C80.2764 34.5 80.5002 34.2761 80.5002 34C80.5002 33.7239 80.2764 33.5 80.0002 33.5Z" fill="black"/>
<path fill-rule="evenodd" clip-rule="evenodd" d="M80.0002 41.5C79.1718 41.5 78.5002 42.1716 78.5002 43C78.5002 43.8284 79.1718 44.5 80.0002 44.5C80.8287 44.5 81.5002 43.8284 81.5002 43C81.5002 42.1716 80.8287 41.5 80.0002 41.5ZM79.5002 43C79.5002 42.7239 79.7241 42.5 80.0002 42.5C80.2764 42.5 80.5002 42.7239 80.5002 43C80.5002 43.2761 80.2764 43.5 80.0002 43.5C79.7241 43.5 79.5002 43.2761 79.5002 43Z" fill="black"/>
<path fill-rule="evenodd" clip-rule="evenodd" d="M33.8156 23.5C30.3048 23.5 27.4285 26.2879 27.3188 29.797L27.009 39.7094C25.3828 39.8501 23.8665 40.3971 22.743 41.0713C21.45 41.847 20.0769 42.8042 19.3357 45.1626C18.6118 47.4659 18.5037 51.0622 19.507 57.0822C21.5065 69.0791 23.5215 77.2185 29.6329 83.8391C32.0668 86.473 35.6 88.2018 39.4249 88.4649L36.5058 107.926C36.4842 108.07 36.5264 108.216 36.6214 108.326C36.7164 108.437 36.8547 108.5 37.0002 108.5H40.5002C40.7211 108.5 40.9157 108.355 40.9792 108.144L46.8723 88.5H83.1282L89.0213 108.144C89.0848 108.355 89.2794 108.5 89.5002 108.5H93.0002C93.1458 108.5 93.2841 108.437 93.3791 108.326C93.4741 108.216 93.5163 108.07 93.4947 107.926L90.5356 88.1986C93.5932 87.5748 96.3558 86.0163 98.3675 83.8393C104.482 77.2153 106.269 69.0676 108.267 57.0822C109.27 51.0622 109.162 47.4659 108.438 45.1626C107.697 42.8042 106.324 41.847 105.031 41.0713C104.507 40.7573 103.899 40.4708 103.234 40.2402C103.046 40.1605 102.853 40.0905 102.658 40.0257C102.589 40.0026 102.518 39.9955 102.45 40.0024C101.981 39.88 101.493 39.787 100.992 39.7318L100.682 29.797C100.572 26.2879 97.6956 23.5 94.1848 23.5H33.8156ZM45.8282 88.5H40.4308L37.5808 107.5H40.1282L45.8282 88.5ZM87.5559 87.5C91.4892 87.5 95.1735 85.8221 97.6329 83.1609C103.518 76.7849 105.278 68.9324 107.28 56.9178C108.277 50.9378 108.135 47.5341 107.484 45.4624C106.978 43.8524 106.158 43.0224 105.233 42.3847C105.412 42.9573 105.5 43.6518 105.5 44.5C105.5 45.4319 105.176 47.5753 104.648 50.3287C104.114 53.1035 103.363 56.5494 102.486 60.1193C100.738 67.2366 98.4753 74.9217 96.4414 78.7353C96.3115 78.979 96.0086 79.0711 95.765 78.9412C95.5213 78.8112 95.4291 78.5084 95.5591 78.2647C97.5252 74.5783 99.7628 67.0134 101.515 59.8807C102.388 56.3256 103.136 52.8965 103.665 50.1401C104.199 47.3622 104.5 45.3181 104.5 44.5C104.5 43.1496 104.257 42.4002 103.912 41.9361C103.659 41.5969 103.32 41.3668 102.871 41.1728C101.82 40.8134 100.616 40.6081 99.4041 40.6936C97.509 40.8273 95.5942 41.6702 94.1894 43.7773C93.7497 44.4369 93.3025 45.4732 92.8679 46.7586C92.4364 48.0351 92.0284 49.5238 91.6572 51.0657C90.9148 54.1492 90.3262 57.4192 89.9944 59.576C89.9831 59.6492 89.9565 59.7163 89.9183 59.7744L93.2836 62.088C93.3245 62.1161 93.3599 62.1493 93.3896 62.186C94.6574 62.982 95.5002 64.3926 95.5002 66V72C95.5002 74.4853 93.4855 76.5 91.0002 76.5H88.4281C89.9324 77.9215 91.8535 80.5787 92.4934 84.4178C92.5388 84.6902 92.3548 84.9478 92.0824 84.9932C91.81 85.0386 91.5524 84.8546 91.507 84.5822C90.7563 80.0781 88.1261 77.3585 86.8521 76.5H39.1484C37.8744 77.3585 35.2442 80.0781 34.4935 84.5822C34.4481 84.8546 34.1905 85.0386 33.9181 84.9932C33.6457 84.9478 33.4617 84.6902 33.5071 84.4178C34.147 80.5787 36.0681 77.9215 37.5724 76.5H37.0002C34.515 76.5 32.5002 74.4853 32.5002 72V66C32.5002 64.3925 33.3431 62.9818 34.6111 62.1859C34.6407 62.1492 34.6761 62.1161 34.717 62.088L37.971 59.8509C37.6305 57.6913 37.0026 54.4193 36.2308 51.3194C35.8312 49.7147 35.3948 48.1628 34.9417 46.8384C34.4853 45.5042 34.0239 44.4369 33.5842 43.7773C32.1794 41.6702 30.2647 40.8273 28.3695 40.6936C27.4795 40.6307 26.5931 40.7249 25.769 40.9217C25.7352 40.9433 25.6982 40.9611 25.6584 40.9743C24.9344 41.2157 24.432 41.4752 24.0888 41.9361C23.7432 42.4002 23.5002 43.1496 23.5002 44.5C23.5002 45.3181 23.8014 47.3622 24.335 50.1401C24.8645 52.8965 25.6126 56.3256 26.4858 59.8807C28.2377 67.0134 30.4753 74.5783 32.4414 78.2647C32.5714 78.5084 32.4792 78.8112 32.2355 78.9412C31.9919 79.0711 31.689 78.979 31.5591 78.7353C29.5252 74.9217 27.2628 67.2366 25.5147 60.1193C24.6379 56.5494 23.886 53.1035 23.353 50.3287C22.8241 47.5753 22.5002 45.4319 22.5002 44.5C22.5002 43.5535 22.6098 42.7985 22.8333 42.1905C21.7908 42.8576 20.8485 43.6843 20.2897 45.4624C19.6386 47.5341 19.4967 50.9378 20.4934 56.9178C22.4939 68.9209 24.479 76.7815 30.3677 83.1609C32.8271 85.8221 36.5112 87.5 40.4445 87.5H87.5559ZM89.8723 107.5L84.1723 88.5H89.5696L92.4196 107.5H89.8723ZM35.7722 24.5H33.8156C30.8449 24.5 28.4111 26.859 28.3183 29.8282L28.0106 39.6763C28.1533 39.6794 28.2965 39.6859 28.4399 39.696C29.8337 39.7944 31.2457 40.2347 32.5002 41.1721V29.8126C32.5002 27.6022 33.5325 26.003 34.9959 24.9738C35.2436 24.7996 35.5033 24.6419 35.7722 24.5ZM33.5002 42.066V29.8126C33.5002 27.9604 34.3462 26.6533 35.5711 25.7918C36.8138 24.9179 38.4565 24.5 39.9973 24.5H88.0002C89.5411 24.5 91.1838 24.9179 92.4264 25.7918C93.6514 26.6533 94.4973 27.9604 94.4973 29.8126L94.5002 41.835C94.0938 42.2326 93.7105 42.693 93.3574 43.2227C92.8428 43.9946 92.3621 45.1324 91.9206 46.4383C91.4761 47.7532 91.0601 49.2731 90.6849 50.8316C89.9627 53.8318 89.3857 56.9998 89.0448 59.1739L85.7954 56.9399C85.3787 56.6534 84.8848 56.5 84.3791 56.5H43.6215C43.1157 56.5 42.6219 56.6534 42.2051 56.9399L38.8828 59.224C38.5254 57.0511 37.9264 53.9906 37.2012 51.0778C36.7976 49.4571 36.3534 47.8755 35.8879 46.5148C35.4258 45.1639 34.9309 43.9946 34.4162 43.2227C34.1296 42.7926 33.823 42.4082 33.5002 42.066ZM90.6632 61.5L85.2289 57.7639C84.9789 57.592 84.6826 57.5 84.3791 57.5H43.6215C43.318 57.5 43.0217 57.592 42.7717 57.7639L37.3374 61.5H90.6632ZM91.0002 75.5C92.9332 75.5 94.5002 73.933 94.5002 72V66C94.5002 64.067 92.9332 62.5 91.0002 62.5H37.0002C35.0672 62.5 33.5002 64.067 33.5002 66V72C33.5002 73.933 35.0672 75.5 37.0002 75.5H91.0002ZM95.5 41.0093C96.6967 40.1833 98.0233 39.7885 99.3337 39.696C99.5531 39.6806 99.772 39.6735 99.9898 39.6743L99.6821 29.8282C99.5893 26.859 97.1554 24.5 94.1848 24.5H92.2253C92.4942 24.6419 92.754 24.7996 93.0017 24.9738C94.4651 26.003 95.4973 27.6023 95.4973 29.8126L95.5 41.0093Z" fill="black"/>
</svg>
