<svg width="128" height="128" viewBox="0 0 128 128" fill="none" xmlns="http://www.w3.org/2000/svg">
<path d="M28 43C28 41.8954 28.8954 41 30 41H98C99.1046 41 100 41.8954 100 43V71H28V43Z" fill="#CA956F"/>
<path d="M11 83H117V103H11V83Z" fill="#F8CAA9"/>
<path d="M13 73C13 71.8954 13.8954 71 15 71H113C114.105 71 115 71.8954 115 73V81C115 82.1046 114.105 83 113 83H15C13.8954 83 13 82.1046 13 81V73Z" fill="#D3FCFF"/>
<path fill-rule="evenodd" clip-rule="evenodd" d="M27.5 43C27.5 41.6193 28.6193 40.5 30 40.5H98C99.3807 40.5 100.5 41.6193 100.5 43V70.5H113C114.381 70.5 115.5 71.6193 115.5 73V81C115.5 81.5628 115.314 82.0822 115 82.5H117C117.276 82.5 117.5 82.7239 117.5 83V103C117.5 103.276 117.276 103.5 117 103.5H11C10.7239 103.5 10.5 103.276 10.5 103V83C10.5 82.7239 10.7239 82.5 11 82.5H12.9998C12.686 82.0822 12.5 81.5628 12.5 81V73C12.5 71.6193 13.6193 70.5 15 70.5H27.5V43ZM13.5 74.5V81C13.5 81.8284 14.1716 82.5 15 82.5H19.5V81C19.5 80.7239 19.7239 80.5 20 80.5C20.2761 80.5 20.5 80.7239 20.5 81V82.5H27.5V81C27.5 80.7239 27.7239 80.5 28 80.5C28.2761 80.5 28.5 80.7239 28.5 81V82.5H35.5V81C35.5 80.7239 35.7239 80.5 36 80.5C36.2761 80.5 36.5 80.7239 36.5 81V82.5H43.5V81C43.5 80.7239 43.7239 80.5 44 80.5C44.2761 80.5 44.5 80.7239 44.5 81V82.5H51.5V81C51.5 80.7239 51.7239 80.5 52 80.5C52.2761 80.5 52.5 80.7239 52.5 81V82.5H59.5V81C59.5 80.7239 59.7239 80.5 60 80.5C60.2761 80.5 60.5 80.7239 60.5 81V82.5H67.5V81C67.5 80.7239 67.7239 80.5 68 80.5C68.2761 80.5 68.5 80.7239 68.5 81V82.5H75.5V81C75.5 80.7239 75.7239 80.5 76 80.5C76.2761 80.5 76.5 80.7239 76.5 81V82.5H83.5V81C83.5 80.7239 83.7239 80.5 84 80.5C84.2761 80.5 84.5 80.7239 84.5 81V82.5H91.5V81C91.5 80.7239 91.7239 80.5 92 80.5C92.2761 80.5 92.5 80.7239 92.5 81V82.5H99.5V81C99.5 80.7239 99.7239 80.5 100 80.5C100.276 80.5 100.5 80.7239 100.5 81V82.5H107.5V81C107.5 80.7239 107.724 80.5 108 80.5C108.276 80.5 108.5 80.7239 108.5 81V82.5H113C113.828 82.5 114.5 81.8284 114.5 81V74.5H13.5ZM114.5 73.5H13.5V73C13.5 72.1716 14.1716 71.5 15 71.5H113C113.828 71.5 114.5 72.1716 114.5 73V73.5ZM99.5 43V70.5H92.5V41.5H98C98.8284 41.5 99.5 42.1716 99.5 43ZM91.5 41.5V70.5H84.5V41.5H91.5ZM83.5 41.5V70.5H76.5V41.5H83.5ZM75.5 41.5V70.5H68.5V41.5H75.5ZM67.5 41.5V70.5H60.5V41.5H67.5ZM59.5 41.5V70.5H52.5V41.5H59.5ZM51.5 41.5V70.5H44.5V41.5H51.5ZM43.5 41.5V70.5H36.5V41.5H43.5ZM35.5 41.5V70.5H28.5V43C28.5 42.1716 29.1716 41.5 30 41.5H35.5ZM116.5 83.5V102.5H11.5V83.5H116.5Z" fill="black"/>
</svg>
