<svg width="128" height="128" viewBox="0 0 128 128" fill="none" xmlns="http://www.w3.org/2000/svg">
<path d="M102 32C102.552 32 103 32.4477 103 33V55C103 55.5523 102.552 56 102 56L26 56C25.4477 56 25 55.5523 25 55L25 33C25 32.4477 25.4477 32 26 32L102 32Z" fill="#F8CAA9"/>
<path d="M102 56C102.552 56 103 56.4477 103 57V79C103 79.5523 102.552 80 102 80L26 80C25.4477 80 25 79.5523 25 79L25 57C25 56.4477 25.4477 56 26 56L102 56Z" fill="#F8CAA9"/>
<path d="M102 80C102.552 80 103 80.4477 103 81V103C103 103.552 102.552 104 102 104L26 104C25.4477 104 25 103.552 25 103L25 81C25 80.4477 25.4477 80 26 80L102 80Z" fill="#F8CAA9"/>
<path d="M56.5 64C56.5 63.7239 56.7239 63.5 57 63.5L71 63.5C71.2761 63.5 71.5 63.7239 71.5 64C71.5 64.2761 71.2761 64.5 71 64.5L57 64.5C56.7239 64.5 56.5 64.2761 56.5 64Z" fill="black"/>
<path d="M57 87.5C56.7239 87.5 56.5 87.7239 56.5 88C56.5 88.2761 56.7239 88.5 57 88.5L71 88.5C71.2761 88.5 71.5 88.2761 71.5 88C71.5 87.7239 71.2761 87.5 71 87.5L57 87.5Z" fill="black"/>
<path d="M57 39.5C56.7239 39.5 56.5 39.7239 56.5 40C56.5 40.2761 56.7239 40.5 57 40.5L71 40.5C71.2761 40.5 71.5 40.2761 71.5 40C71.5 39.7239 71.2761 39.5 71 39.5L57 39.5Z" fill="black"/>
<path fill-rule="evenodd" clip-rule="evenodd" d="M22.5 32C22.5 31.7239 22.7239 31.5 23 31.5L105 31.5C105.276 31.5 105.5 31.7239 105.5 32C105.5 32.2761 105.276 32.5 105 32.5L103.415 32.5C103.47 32.6564 103.5 32.8247 103.5 33V55C103.5 55.3842 103.356 55.7346 103.118 56C103.356 56.2654 103.5 56.6158 103.5 57V79C103.5 79.3842 103.356 79.7346 103.118 80C103.356 80.2654 103.5 80.6158 103.5 81V103C103.5 103.828 102.828 104.5 102 104.5L26 104.5C25.1716 104.5 24.5 103.828 24.5 103L24.5 81C24.5 80.6158 24.6444 80.2654 24.882 80C24.6444 79.7346 24.5 79.3842 24.5 79L24.5 57C24.5 56.6158 24.6444 56.2654 24.882 56C24.6444 55.7346 24.5 55.3842 24.5 55L24.5 33C24.5 32.8247 24.5301 32.6564 24.5854 32.5L23 32.5C22.7239 32.5 22.5 32.2761 22.5 32ZM102.5 79C102.5 79.2756 102.277 79.4991 102.002 79.5L102 79.5L26 79.5C25.7239 79.5 25.5 79.2761 25.5 79L25.5 57C25.5 56.7239 25.7239 56.5 26 56.5L102 56.5C102.276 56.5 102.5 56.7239 102.5 57V79ZM25.5 81C25.5 80.7239 25.7239 80.5 26 80.5L102 80.5C102.276 80.5 102.5 80.7239 102.5 81V103C102.5 103.276 102.276 103.5 102 103.5L26 103.5C25.7239 103.5 25.5 103.276 25.5 103L25.5 81ZM102.002 55.5C102.277 55.4991 102.5 55.2756 102.5 55V33C102.5 32.7239 102.276 32.5 102 32.5L26 32.5C25.7241 32.5002 25.5 32.724 25.5 33L25.5 55C25.5 55.2761 25.7239 55.5 26 55.5L102 55.5L102.002 55.5Z" fill="black"/>
</svg>
