<svg width="128" height="128" viewBox="0 0 128 128" fill="none" xmlns="http://www.w3.org/2000/svg">
<path d="M28 87H100V119H28V87Z" fill="#F8CAA9"/>
<path d="M28 9H100V87H28V9Z" fill="#F8CAA9"/>
<path d="M32 13H62V83H32V13Z" fill="#CA956F"/>
<path d="M66 13H96V83H66V13Z" fill="#E7FEFF"/>
<path d="M89.3536 34.6464C89.5488 34.8417 89.5488 35.1583 89.3536 35.3536L72.3536 52.3536C72.1583 52.5488 71.8417 52.5488 71.6464 52.3536C71.4512 52.1583 71.4512 51.8417 71.6464 51.6464L88.6464 34.6464C88.8417 34.4512 89.1583 34.4512 89.3536 34.6464Z" fill="black"/>
<path d="M72.3536 56.3536L85.3536 43.3536C85.5488 43.1583 85.5488 42.8417 85.3536 42.6464C85.1583 42.4512 84.8417 42.4512 84.6464 42.6464L71.6464 55.6464C71.4512 55.8417 71.4512 56.1583 71.6464 56.3536C71.8417 56.5488 72.1583 56.5488 72.3536 56.3536Z" fill="black"/>
<path fill-rule="evenodd" clip-rule="evenodd" d="M66 12.5C65.7239 12.5 65.5 12.7239 65.5 13V83C65.5 83.2761 65.7239 83.5 66 83.5H96C96.2761 83.5 96.5 83.2761 96.5 83V13C96.5 12.7239 96.2761 12.5 96 12.5H66ZM66.5 82.5V13.5H95.5V82.5H66.5Z" fill="black"/>
<path fill-rule="evenodd" clip-rule="evenodd" d="M31.5 83C31.5 83.2761 31.7239 83.5 32 83.5H62C62.2761 83.5 62.5 83.2761 62.5 83V13C62.5 12.7239 62.2761 12.5 62 12.5H32C31.7239 12.5 31.5 12.7239 31.5 13V83ZM61.5 72.5H32.5V63.5H61.5V72.5ZM61.5 73.5H32.5V82.5H61.5V73.5ZM61.5 62.5H32.5V53.5H61.5V62.5ZM61.5 52.5H32.5V43.5H61.5V52.5ZM61.5 42.5H32.5V33.5H61.5V42.5ZM61.5 32.5H32.5V23.5H61.5V32.5ZM61.5 22.5H32.5V13.5H61.5V22.5Z" fill="black"/>
<path d="M56 94.5C56.2761 94.5 56.5 94.7239 56.5 95V103C56.5 103.276 56.2761 103.5 56 103.5C55.7239 103.5 55.5 103.276 55.5 103V95C55.5 94.7239 55.7239 94.5 56 94.5Z" fill="black"/>
<path d="M71.5 95V103C71.5 103.276 71.7239 103.5 72 103.5C72.2761 103.5 72.5 103.276 72.5 103V95C72.5 94.7239 72.2761 94.5 72 94.5C71.7239 94.5 71.5 94.7239 71.5 95Z" fill="black"/>
<path fill-rule="evenodd" clip-rule="evenodd" d="M27.5 9C27.5 8.72386 27.7239 8.5 28 8.5H100C100.276 8.5 100.5 8.72386 100.5 9V119C100.5 119.276 100.276 119.5 100 119.5H28C27.7239 119.5 27.5 119.276 27.5 119V9ZM28.5 86.5H99.5V9.5H28.5V86.5ZM28.5 87.5V118.5H63.5V87.5H28.5ZM64.5 87.5V118.5H99.5V87.5H64.5Z" fill="black"/>
</svg>
