<svg width="128" height="128" viewBox="0 0 128 128" fill="none" xmlns="http://www.w3.org/2000/svg">
<path d="M102 9C102.552 9 103 9.44772 103 10V72C103 72.5523 102.552 73 102 73L26 73C25.4477 73 25 72.5523 25 72L25 10C25 9.44772 25.4477 9 26 9L102 9Z" fill="#CA956F"/>
<path d="M102 73C102.552 73 103 73.4477 103 74V88C103 88.5523 102.552 89 102 89L26 89C25.4477 89 25 88.5523 25 88L25 74C25 73.4477 25.4477 73 26 73L102 73Z" fill="#F8CAA9"/>
<path d="M102 89C102.552 89 103 89.4477 103 90V118C103 118.552 102.552 119 102 119L26 119C25.4477 119 25 118.552 25 118L25 90C25 89.4477 25.4477 89 26 89L102 89Z" fill="#F8CAA9"/>
<path d="M58.5 97C58.5 96.7239 58.7239 96.5 59 96.5L69 96.5C69.2761 96.5 69.5 96.7239 69.5 97C69.5 97.2761 69.2761 97.5 69 97.5L59 97.5C58.7239 97.5 58.5 97.2761 58.5 97Z" fill="black"/>
<path d="M59 80.5C58.7239 80.5 58.5 80.7239 58.5 81C58.5 81.2761 58.7239 81.5 59 81.5L69 81.5C69.2761 81.5 69.5 81.2761 69.5 81C69.5 80.7239 69.2761 80.5 69 80.5L59 80.5Z" fill="black"/>
<path fill-rule="evenodd" clip-rule="evenodd" d="M63.9985 8.5L26 8.5C25.1716 8.5 24.5 9.17157 24.5 10L24.5 24.9986L24.5 25L24.5 25.0014L24.5 72C24.5 72.3842 24.6444 72.7346 24.8819 73C24.6444 73.2654 24.5 73.6158 24.5 74L24.5 88C24.5 88.3842 24.6444 88.7346 24.882 89C24.6444 89.2654 24.5 89.6158 24.5 90L24.5 118C24.5 118.828 25.1716 119.5 26 119.5L102 119.5C102.828 119.5 103.5 118.828 103.5 118V90C103.5 89.6158 103.356 89.2654 103.118 89C103.356 88.7346 103.5 88.3842 103.5 88V74C103.5 73.6158 103.356 73.2654 103.118 73C103.356 72.7346 103.5 72.3842 103.5 72V10C103.5 9.17158 102.828 8.5 102 8.5L64.0015 8.5L64 8.5L63.9985 8.5ZM26 89.5C25.7239 89.5 25.5 89.7239 25.5 90L25.5 118C25.5 118.276 25.7239 118.5 26 118.5L102 118.5C102.276 118.5 102.5 118.276 102.5 118V90C102.5 89.7239 102.276 89.5 102 89.5L26 89.5ZM102 88.5C102.276 88.5 102.5 88.2762 102.5 88V74C102.5 73.7239 102.276 73.5 102 73.5L26 73.5C25.7239 73.5 25.5 73.7239 25.5 74L25.5 88C25.5 88.2761 25.7239 88.5 26 88.5L102 88.5ZM63.5 72.5H26C25.7239 72.5 25.5 72.2761 25.5 72L25.5 57.5H63.5V72.5ZM102 72.5H64.5V57.5H102.5V72C102.5 72.2761 102.276 72.5 102 72.5ZM102.5 24.5L64.5 24.5V9.5L102 9.5C102.276 9.5 102.5 9.72386 102.5 10V24.5ZM102.5 25.5V40.5H64.5V25.5L102.5 25.5ZM102.5 41.5H64.5V56.5H102.5V41.5ZM25.5 56.5H63.5V41.5H25.5L25.5 56.5ZM25.5 40.5H63.5V25.5L25.5 25.5L25.5 40.5ZM25.5 24.5L63.5 24.5V9.5L26 9.5C25.7239 9.5 25.5 9.72386 25.5 10L25.5 24.5Z" fill="black"/>
</svg>
