<svg width="128" height="128" viewBox="0 0 128 128" fill="none" xmlns="http://www.w3.org/2000/svg">
<path fill-rule="evenodd" clip-rule="evenodd" d="M64 53.5C62.6193 53.5 61.5 54.6193 61.5 56C61.5 57.3807 62.6193 58.5 64 58.5C65.3807 58.5 66.5 57.3807 66.5 56C66.5 54.6193 65.3807 53.5 64 53.5ZM62.5 56C62.5 55.1716 63.1716 54.5 64 54.5C64.8284 54.5 65.5 55.1716 65.5 56C65.5 56.8284 64.8284 57.5 64 57.5C63.1716 57.5 62.5 56.8284 62.5 56Z" fill="black"/>
<path fill-rule="evenodd" clip-rule="evenodd" d="M18 64.5H25.4172L19.683 101.772C19.5433 102.681 20.2463 103.5 21.1656 103.5H21.2241C21.909 103.5 22.5069 103.036 22.6771 102.373L32.388 64.5L95.612 64.5L105.323 102.373C105.493 103.036 106.091 103.5 106.776 103.5H106.834C107.754 103.5 108.457 102.681 108.317 101.772L102.583 64.5H110C110.828 64.5 111.5 63.8284 111.5 63V49C111.5 48.1716 110.828 47.5 110 47.5L18 47.5C17.1716 47.5 16.5 48.1716 16.5 49L16.5 63C16.5 63.8284 17.1716 64.5 18 64.5ZM18 48.5C17.7239 48.5 17.5 48.7239 17.5 49L17.5 63C17.5 63.2761 17.7239 63.5 18 63.5L32 63.5L32.0015 63.5L95.9973 63.5L96 63.5L102 63.5L102.003 63.5H110C110.276 63.5 110.5 63.2761 110.5 63V49C110.5 48.7239 110.276 48.5 110 48.5L18 48.5ZM20.6714 101.924L26.429 64.5H31.3556L21.7084 102.124C21.6517 102.345 21.4524 102.5 21.2241 102.5H21.1656C20.8592 102.5 20.6248 102.227 20.6714 101.924ZM106.292 102.124L96.6444 64.5H101.571L107.329 101.924C107.375 102.227 107.141 102.5 106.834 102.5H106.776C106.548 102.5 106.348 102.345 106.292 102.124Z" fill="black"/>
<path d="M102 64L95.9999 64L105.807 102.248C105.921 102.691 106.319 103 106.776 103L106.834 103C107.447 103 107.916 102.454 107.823 101.848L102 64Z" fill="#CA956F"/>
<path d="M26.0001 64L32.0001 64L22.1929 102.248C22.0794 102.691 21.6808 103 21.2242 103L21.1657 103C20.5529 103 20.0842 102.454 20.1774 101.848L26.0001 64Z" fill="#CA956F"/>
<path d="M110 48C110.552 48 111 48.4477 111 49V63C111 63.5523 110.552 64 110 64L18 64C17.4477 64 17 63.5523 17 63L17 49C17 48.4477 17.4477 48 18 48L110 48Z" fill="#F8CAA9"/>
<path d="M66 56C66 57.1046 65.1046 58 64 58C62.8954 58 62 57.1046 62 56C62 54.8954 62.8954 54 64 54C65.1046 54 66 54.8954 66 56Z" fill="#CA956F"/>
<path fill-rule="evenodd" clip-rule="evenodd" d="M64 53.5C62.6193 53.5 61.5 54.6193 61.5 56C61.5 57.3807 62.6193 58.5 64 58.5C65.3807 58.5 66.5 57.3807 66.5 56C66.5 54.6193 65.3807 53.5 64 53.5ZM62.5 56C62.5 55.1716 63.1716 54.5 64 54.5C64.8284 54.5 65.5 55.1716 65.5 56C65.5 56.8284 64.8284 57.5 64 57.5C63.1716 57.5 62.5 56.8284 62.5 56Z" fill="black"/>
<path fill-rule="evenodd" clip-rule="evenodd" d="M18 64.5H25.4172L19.683 101.772C19.5433 102.681 20.2463 103.5 21.1656 103.5H21.2241C21.909 103.5 22.5069 103.036 22.6771 102.373L32.388 64.5L95.612 64.5L105.323 102.373C105.493 103.036 106.091 103.5 106.776 103.5H106.834C107.754 103.5 108.457 102.681 108.317 101.772L102.583 64.5H110C110.828 64.5 111.5 63.8284 111.5 63V49C111.5 48.1716 110.828 47.5 110 47.5L18 47.5C17.1716 47.5 16.5 48.1716 16.5 49L16.5 63C16.5 63.8284 17.1716 64.5 18 64.5ZM18 48.5C17.7239 48.5 17.5 48.7239 17.5 49L17.5 63C17.5 63.2761 17.7239 63.5 18 63.5L32 63.5L32.0015 63.5L95.9973 63.5L96 63.5L102 63.5L102.003 63.5H110C110.276 63.5 110.5 63.2761 110.5 63V49C110.5 48.7239 110.276 48.5 110 48.5L18 48.5ZM20.6714 101.924L26.429 64.5H31.3556L21.7084 102.124C21.6517 102.345 21.4524 102.5 21.2241 102.5H21.1656C20.8592 102.5 20.6248 102.227 20.6714 101.924ZM106.292 102.124L96.6444 64.5H101.571L107.329 101.924C107.375 102.227 107.141 102.5 106.834 102.5H106.776C106.548 102.5 106.348 102.345 106.292 102.124Z" fill="black"/>
</svg>
