<svg width="128" height="128" viewBox="0 0 128 128" fill="none" xmlns="http://www.w3.org/2000/svg">
<path d="M103 56H109L109 102H103V56Z" fill="#8D6C54"/>
<path d="M19 56H25L25 102H19V56Z" fill="#8D6C54"/>
<path d="M111 48V56L17 56L17 48L111 48Z" fill="#C29676"/>
<path fill-rule="evenodd" clip-rule="evenodd" d="M17 47.5C16.7239 47.5 16.5 47.7239 16.5 48L16.5 56C16.5 56.1326 16.5527 56.2598 16.6464 56.3536C16.7402 56.4473 16.8674 56.5 17 56.5H18.5V102C18.5 102.276 18.7239 102.5 19 102.5H25C25.2761 102.5 25.5 102.276 25.5 102L25.5 56.5L102.5 56.5V102C102.5 102.276 102.724 102.5 103 102.5H109C109.276 102.5 109.5 102.276 109.5 102V56.5H111C111.133 56.5 111.26 56.4473 111.354 56.3536C111.447 56.2598 111.5 56.1326 111.5 56V48C111.5 47.7239 111.276 47.5 111 47.5L17 47.5ZM108.5 56.5H103.5V101.5H108.5V56.5ZM109.003 55.5H110.5V48.5L17.5 48.5L17.5 55.5H18.9996C18.9998 55.5 18.9995 55.5 18.9996 55.5H25C25.0003 55.5 24.9997 55.5 25 55.5L102.997 55.5C102.998 55.5 102.999 55.5 103 55.5H109C109.001 55.5 109.002 55.5 109.003 55.5ZM24.5 56.5H19.5V101.5H24.5L24.5 56.5Z" fill="black"/>
</svg>
