<svg width="128" height="128" viewBox="0 0 128 128" fill="none" xmlns="http://www.w3.org/2000/svg">
<path d="M103 100V103C103 103.552 102.552 104 102 104L94 104C93.4477 104 93 103.552 93 103L93 100L103 100Z" fill="#8D6C54"/>
<path d="M35 100V103C35 103.552 34.5523 104 34 104L26 104C25.4477 104 25 103.552 25 103L25 100L35 100Z" fill="#8D6C54"/>
<path d="M110 34C110.552 34 111 34.4477 111 35V55C111 55.5523 110.552 56 110 56L18 56C17.4477 56 17 55.5523 17 55L17 35C17 34.4477 17.4477 34 18 34L110 34Z" fill="#C29676"/>
<path d="M110 56C110.552 56 111 56.4477 111 57V77C111 77.5523 110.552 78 110 78L18 78C17.4477 78 17 77.5523 17 77L17 57C17 56.4477 17.4477 56 18 56L110 56Z" fill="#C29676"/>
<path d="M110 78C110.552 78 111 78.4477 111 79V99C111 99.5523 110.552 100 110 100L18 100C17.4477 100 17 99.5523 17 99L17 79C17 78.4477 17.4477 78 18 78L110 78Z" fill="#C29676"/>
<path d="M86 63.5C85.7239 63.5 85.5 63.7239 85.5 64C85.5 64.2761 85.7239 64.5 86 64.5L94 64.5C94.2761 64.5 94.5 64.2761 94.5 64C94.5 63.7239 94.2761 63.5 94 63.5L86 63.5Z" fill="black"/>
<path d="M33.5 64C33.5 63.7239 33.7239 63.5 34 63.5L42 63.5C42.2761 63.5 42.5 63.7239 42.5 64C42.5 64.2761 42.2761 64.5 42 64.5L34 64.5C33.7239 64.5 33.5 64.2761 33.5 64Z" fill="black"/>
<path d="M85.5 86C85.5 85.7239 85.7239 85.5 86 85.5L94 85.5C94.2761 85.5 94.5 85.7239 94.5 86C94.5 86.2761 94.2761 86.5 94 86.5L86 86.5C85.7239 86.5 85.5 86.2761 85.5 86Z" fill="black"/>
<path d="M34 85.5C33.7239 85.5 33.5 85.7239 33.5 86C33.5 86.2761 33.7239 86.5 34 86.5L42 86.5C42.2761 86.5 42.5 86.2761 42.5 86C42.5 85.7239 42.2761 85.5 42 85.5L34 85.5Z" fill="black"/>
<path d="M85.5 42C85.5 41.7239 85.7239 41.5 86 41.5L94 41.5C94.2761 41.5 94.5 41.7239 94.5 42C94.5 42.2761 94.2761 42.5 94 42.5L86 42.5C85.7239 42.5 85.5 42.2761 85.5 42Z" fill="black"/>
<path d="M34 41.5C33.7239 41.5 33.5 41.7239 33.5 42C33.5 42.2761 33.7239 42.5 34 42.5L42 42.5C42.2761 42.5 42.5 42.2761 42.5 42C42.5 41.7239 42.2761 41.5 42 41.5L34 41.5Z" fill="black"/>
<path fill-rule="evenodd" clip-rule="evenodd" d="M15 33.5C14.7239 33.5 14.5 33.7239 14.5 34C14.5 34.2761 14.7239 34.5 15 34.5L16.5854 34.5C16.5301 34.6564 16.5 34.8247 16.5 35L16.5 55C16.5 55.3842 16.6444 55.7346 16.882 56C16.6444 56.2654 16.5 56.6158 16.5 57L16.5 77C16.5 77.3842 16.6444 77.7346 16.882 78C16.6444 78.2654 16.5 78.6158 16.5 79L16.5 99C16.5 99.8284 17.1716 100.5 18 100.5H24.5L24.5 103C24.5 103.828 25.1716 104.5 26 104.5L34 104.5C34.8284 104.5 35.5 103.828 35.5 103V100.5L92.5 100.5V103C92.5 103.828 93.1716 104.5 94 104.5L102 104.5C102.828 104.5 103.5 103.828 103.5 103V100.5H110C110.828 100.5 111.5 99.8284 111.5 99V79C111.5 78.6158 111.356 78.2654 111.118 78C111.356 77.7346 111.5 77.3842 111.5 77V57C111.5 56.6158 111.356 56.2654 111.118 56C111.356 55.7346 111.5 55.3842 111.5 55V35C111.5 34.8247 111.47 34.6564 111.415 34.5L113 34.5C113.276 34.5 113.5 34.2761 113.5 34C113.5 33.7239 113.276 33.5 113 33.5L15 33.5ZM110.002 77.5C110.277 77.4991 110.5 77.2756 110.5 77V57C110.5 56.7239 110.276 56.5 110 56.5L18 56.5C17.7239 56.5 17.5 56.7239 17.5 57L17.5 77C17.5 77.2761 17.7239 77.5 18 77.5L110 77.5L110.002 77.5ZM102.5 100.5L93.5 100.5V103C93.5 103.276 93.7239 103.5 94 103.5L102 103.5C102.276 103.5 102.5 103.276 102.5 103V100.5ZM110 99.5C110.276 99.5 110.5 99.2762 110.5 99V79C110.5 78.7239 110.276 78.5 110 78.5L18 78.5C17.7239 78.5 17.5 78.7239 17.5 79L17.5 99C17.5 99.2761 17.7239 99.5 18 99.5L92.9975 99.5L93 99.5L110 99.5ZM34.5 100.5L25.5 100.5L25.5 103C25.5 103.276 25.7239 103.5 26 103.5L34 103.5C34.2761 103.5 34.5 103.276 34.5 103V100.5ZM110 55.5L18 55.5C17.7239 55.5 17.5 55.2761 17.5 55L17.5 35C17.5 34.724 17.7237 34.5002 17.9996 34.5L110 34.5C110.276 34.5 110.5 34.7239 110.5 35V55C110.5 55.2756 110.277 55.4991 110.002 55.5L110 55.5Z" fill="black"/>
</svg>
