<svg width="128" height="128" viewBox="0 0 128 128" fill="none" xmlns="http://www.w3.org/2000/svg">
<path d="M63 39V111H65V39H63Z" fill="#CA956F"/>
<path d="M48 117.4C48 113.865 50.8654 111 54.4 111H73.6C77.1346 111 80 113.865 80 117.4C80 118.284 79.2837 119 78.4 119H49.6C48.7163 119 48 118.284 48 117.4Z" fill="#F8CAA9"/>
<path d="M56 9H72L80 39H48L56 9Z" fill="#F3EE77"/>
<path fill-rule="evenodd" clip-rule="evenodd" d="M55.5169 8.87117C55.5753 8.65229 55.7735 8.5 56 8.5H72C72.2265 8.5 72.4248 8.65229 72.4831 8.87117L80.4831 38.8712C80.5231 39.0213 80.4911 39.1814 80.3965 39.3046C80.3019 39.4278 80.1553 39.5 80 39.5H65.5V110.5H73.6C77.4108 110.5 80.5 113.589 80.5 117.4C80.5 118.56 79.5598 119.5 78.4 119.5H49.6C48.4402 119.5 47.5 118.56 47.5 117.4C47.5 113.589 50.5892 110.5 54.4 110.5H62.5V39.5H48C47.8447 39.5 47.6981 39.4278 47.6035 39.3046C47.5089 39.1814 47.4769 39.0213 47.5169 38.8712L55.5169 8.87117ZM63.5 110.5H64.5V39.5H63.5V110.5ZM54.4 111.5C51.1415 111.5 48.5 114.142 48.5 117.4C48.5 118.008 48.9925 118.5 49.6 118.5H78.4C79.0075 118.5 79.5 118.008 79.5 117.4C79.5 114.142 76.8585 111.5 73.6 111.5H54.4ZM79.3492 38.5H48.6508L50.2508 32.5H55.9673L55.5089 34.9064C55.4573 35.1777 55.6353 35.4395 55.9065 35.4911C56.1778 35.5428 56.4396 35.3648 56.4913 35.0935L56.9853 32.5H77.7492L79.3492 38.5ZM56.3841 9.5L50.5175 31.5H56.1578L59.5089 13.9064C59.5606 13.6351 59.8224 13.4571 60.0936 13.5088C60.3649 13.5605 60.5429 13.8223 60.4913 14.0935L57.1757 31.5H77.4825L71.6159 9.5H56.3841Z" fill="black"/>
</svg>
