<svg width="128" height="128" viewBox="0 0 128 128" fill="none" xmlns="http://www.w3.org/2000/svg">
<path d="M32 120H96L94 117H34L32 120Z" fill="#AFCFE1"/>
<path d="M40 39C40 25.7452 50.7452 15 64 15C77.2548 15 88 25.7452 88 39V85C88 98.2548 77.2548 109 64 109C50.7452 109 40 98.2548 40 85V39Z" fill="#75E2F1"/>
<path d="M43 39C43 27.402 52.402 18 64 18C75.598 18 85 27.402 85 39V85C85 96.598 75.598 106 64 106C52.402 106 43 96.598 43 85V39Z" fill="#E7FEFF"/>
<path d="M78.3467 42.6397C78.5457 42.8312 78.5518 43.1477 78.3603 43.3467L52.8603 69.8467C52.6688 70.0457 52.3523 70.0518 52.1533 69.8603C51.9543 69.6688 51.9482 69.3523 52.1397 69.1533L77.6397 42.6533C77.8312 42.4543 78.1477 42.4482 78.3467 42.6397Z" fill="black"/>
<path d="M72.3536 56.3536C72.5488 56.1583 72.5488 55.8417 72.3536 55.6464C72.1583 55.4512 71.8417 55.4512 71.6464 55.6464L51.6464 75.6464C51.4512 75.8417 51.4512 76.1583 51.6464 76.3536C51.8417 76.5488 52.1583 76.5488 52.3536 76.3536L72.3536 56.3536Z" fill="black"/>
<path fill-rule="evenodd" clip-rule="evenodd" d="M64 17.5C52.1259 17.5 42.5 27.1259 42.5 39V85C42.5 96.8741 52.1259 106.5 64 106.5C75.8741 106.5 85.5 96.8741 85.5 85V39C85.5 27.1259 75.8741 17.5 64 17.5ZM43.5 39C43.5 27.6782 52.6782 18.5 64 18.5C75.3218 18.5 84.5 27.6782 84.5 39V85C84.5 96.3218 75.3218 105.5 64 105.5C52.6782 105.5 43.5 96.3218 43.5 85V39Z" fill="black"/>
<path fill-rule="evenodd" clip-rule="evenodd" d="M39.5 39C39.5 25.469 50.469 14.5 64 14.5C77.531 14.5 88.5 25.469 88.5 39V62.5H94C94.2761 62.5 94.5 62.7239 94.5 63V116.849L96.416 119.723C96.5183 119.876 96.5278 120.073 96.4408 120.236C96.3538 120.399 96.1844 120.5 96 120.5H32C31.8156 120.5 31.6462 120.399 31.5592 120.236C31.4722 120.073 31.4817 119.876 31.584 119.723L33.5 116.849V63C33.5 62.7239 33.7239 62.5 34 62.5H39.5V39ZM87.5 39V85C87.5 97.9787 76.9787 108.5 64 108.5C51.0213 108.5 40.5 97.9787 40.5 85V39C40.5 26.0213 51.0213 15.5 64 15.5C76.9787 15.5 87.5 26.0213 87.5 39ZM39.5 85V63.5H34.5V116.5H93.5V63.5H88.5V85C88.5 98.531 77.531 109.5 64 109.5C50.469 109.5 39.5 98.531 39.5 85ZM34.2676 117.5L32.9343 119.5H95.0657L93.7324 117.5H34.2676Z" fill="black"/>
</svg>
