<svg width="128" height="128" viewBox="0 0 128 128" fill="none" xmlns="http://www.w3.org/2000/svg">
<path d="M31 34C31 24.0589 39.0589 16 49 16H79C88.9411 16 97 24.0589 97 34V94C97 103.941 88.9411 112 79 112H49C39.0589 112 31 103.941 31 94V34Z" fill="#75E2F1"/>
<path d="M34 35C34 26.1634 41.1634 19 50 19H78C86.8366 19 94 26.1634 94 35V93C94 101.837 86.8366 109 78 109H50C41.1634 109 34 101.837 34 93V35Z" fill="#E7FEFF"/>
<path fill-rule="evenodd" clip-rule="evenodd" d="M64 102.5C63.1716 102.5 62.5 103.172 62.5 104C62.5 104.828 63.1716 105.5 64 105.5C64.8284 105.5 65.5 104.828 65.5 104C65.5 103.172 64.8284 102.5 64 102.5ZM63.5 104C63.5 103.724 63.7239 103.5 64 103.5C64.2761 103.5 64.5 103.724 64.5 104C64.5 104.276 64.2761 104.5 64 104.5C63.7239 104.5 63.5 104.276 63.5 104Z" fill="black"/>
<path d="M76.3467 40.6397C76.5457 40.8312 76.5518 41.1477 76.3603 41.3467L50.8603 67.8467C50.6688 68.0457 50.3523 68.0518 50.1533 67.8603C49.9543 67.6688 49.9482 67.3523 50.1397 67.1533L75.6397 40.6533C75.8312 40.4543 76.1477 40.4482 76.3467 40.6397Z" fill="black"/>
<path d="M70.3536 54.3536C70.5488 54.1583 70.5488 53.8417 70.3536 53.6464C70.1583 53.4512 69.8417 53.4512 69.6464 53.6464L49.6464 73.6464C49.4512 73.8417 49.4512 74.1583 49.6464 74.3536C49.8417 74.5488 50.1583 74.5488 50.3536 74.3536L70.3536 54.3536Z" fill="black"/>
<path fill-rule="evenodd" clip-rule="evenodd" d="M33.5 35C33.5 25.8873 40.8873 18.5 50 18.5H78C87.1127 18.5 94.5 25.8873 94.5 35V93C94.5 102.113 87.1127 109.5 78 109.5H50C40.8873 109.5 33.5 102.113 33.5 93V35ZM50 19.5C41.4396 19.5 34.5 26.4396 34.5 35V93C34.5 101.56 41.4396 108.5 50 108.5H78C86.5604 108.5 93.5 101.56 93.5 93V35C93.5 26.4396 86.5604 19.5 78 19.5H50Z" fill="black"/>
<path fill-rule="evenodd" clip-rule="evenodd" d="M30.5 34C30.5 23.7827 38.7827 15.5 49 15.5H79C89.2173 15.5 97.5 23.7827 97.5 34V94C97.5 104.217 89.2173 112.5 79 112.5H49C38.7827 112.5 30.5 104.217 30.5 94V34ZM49 16.5C39.335 16.5 31.5 24.335 31.5 34V94C31.5 103.665 39.335 111.5 49 111.5H79C88.665 111.5 96.5 103.665 96.5 94V34C96.5 24.335 88.665 16.5 79 16.5H49Z" fill="black"/>
</svg>
