<svg width="128" height="128" viewBox="0 0 128 128" fill="none" xmlns="http://www.w3.org/2000/svg">
<path d="M99 38C101.209 38 103 39.7909 103 42V53C103 53.5523 102.552 54 102 54L26 54C25.4477 54 25 53.5523 25 53L25 42C25 39.7909 26.7909 38 29 38L99 38Z" fill="#87EABA"/>
<path d="M102 54C102.552 54 103 54.4477 103 55V101C103 101.552 102.552 102 102 102L26 102C25.4477 102 25 101.552 25 101L25 55C25 54.4477 25.4477 54 26 54L102 54Z" fill="#87EABA"/>
<path d="M43 102V105C43 105.552 42.5523 106 42 106L34 106C33.4477 106 33 105.552 33 105L33 102L43 102Z" fill="#CA956F"/>
<path d="M95 102V105C95 105.552 94.5523 106 94 106L86 106C85.4477 106 85 105.552 85 105L85 102L95 102Z" fill="#CA956F"/>
<path fill-rule="evenodd" clip-rule="evenodd" d="M24.882 54C24.6444 53.7346 24.5 53.3842 24.5 53L24.5 42C24.5 39.5147 26.5147 37.5 29 37.5L99 37.5C101.485 37.5 103.5 39.5147 103.5 42V53C103.5 53.3842 103.356 53.7346 103.118 54C103.356 54.2654 103.5 54.6158 103.5 55V100C103.5 101.381 102.381 102.5 101 102.5H95.5V105C95.5 105.828 94.8284 106.5 94 106.5H86C85.1716 106.5 84.5 105.828 84.5 105V102.5L43.5 102.5V105C43.5 105.828 42.8284 106.5 42 106.5H34C33.1716 106.5 32.5 105.828 32.5 105V102.5H27C25.6193 102.5 24.5 101.381 24.5 100L24.5 55C24.5 54.6158 24.6444 54.2654 24.882 54ZM25.5 42C25.5 40.067 27.067 38.5 29 38.5L99 38.5C100.933 38.5 102.5 40.067 102.5 42V53C102.5 53.2756 102.277 53.4991 102.002 53.5L102 53.5L26 53.5C25.7239 53.5 25.5 53.2761 25.5 53L25.5 42ZM84.9976 101.5C84.9984 101.5 84.9992 101.5 85 101.5H95C95.0009 101.5 95.0018 101.5 95.0026 101.5H101C101.828 101.5 102.5 100.828 102.5 100V55C102.5 54.7239 102.276 54.5 102 54.5L26 54.5C25.7239 54.5 25.5 54.7239 25.5 55L25.5 100C25.5 100.828 26.1716 101.5 27 101.5L84.9976 101.5ZM85.5 102.5V105C85.5 105.276 85.7239 105.5 86 105.5H94C94.2761 105.5 94.5 105.276 94.5 105V102.5H85.5ZM33.5 102.5H42.5V105C42.5 105.276 42.2761 105.5 42 105.5H34C33.7239 105.5 33.5 105.276 33.5 105V102.5Z" fill="black"/>
</svg>
