<svg width="128" height="128" viewBox="0 0 128 128" fill="none" xmlns="http://www.w3.org/2000/svg">
<path d="M89.5338 119H38.4664C36.4999 119 35.6448 116.368 37.1931 115.156C41.2647 111.967 46.6912 107.297 49.4679 103.116C51.6463 99.8362 54.446 95.0833 56.4345 91.6319C57.9953 88.9227 60.8734 87.2319 64.0001 87.2319C67.1268 87.2319 70.0049 88.9227 71.5658 91.6319C73.5542 95.0833 76.354 99.8362 78.5323 103.116C81.309 107.297 86.7355 111.967 90.8071 115.156C92.3554 116.368 91.5003 119 89.5338 119Z" fill="#BB453E"/>
<path d="M102 53C102 76.196 84.9868 95 64 95C43.0132 95 26 76.196 26 53C26 29.804 43.0132 11 64 11C84.9868 11 102 29.804 102 53Z" fill="#FF7F77"/>
<path d="M96 50C96 70.4345 83.6731 86 64 86C44.3269 86 32 70.4345 32 50C32 29.5655 46.3269 13 64 13C81.6731 13 96 29.5655 96 50Z" fill="#E8645C"/>
<path d="M83 78C83 81.866 73.9411 85 64 85C54.0589 85 45 81.866 45 78C45 74.134 53.0589 71 64 71C74.9411 71 83 74.134 83 78Z" fill="#FF918A"/>
<path fill-rule="evenodd" clip-rule="evenodd" d="M31.5 50C31.5 29.3599 45.9851 12.5 64 12.5C82.0149 12.5 96.5 29.3599 96.5 50C96.5 60.3152 93.3885 69.4373 87.7566 75.9889C82.1185 82.5476 73.9788 86.5 64 86.5C54.0212 86.5 45.8815 82.5476 40.2434 75.9889C34.6115 69.4373 31.5 60.3152 31.5 50ZM64 13.5C46.6687 13.5 32.5 29.771 32.5 50C32.5 60.1194 35.5519 68.9972 41.0017 75.337C42.1136 76.6305 43.3263 77.8195 44.6349 78.8929C44.5468 78.6044 44.5 78.3065 44.5 78C44.5 76.8452 45.1042 75.7998 46.0949 74.9044C47.0844 74.0099 48.4965 73.2281 50.2217 72.582C53.6755 71.2885 58.4884 70.5 64 70.5C69.5116 70.5 74.3245 71.2885 77.7783 72.582C79.5035 73.2281 80.9156 74.0099 81.9051 74.9044C82.8958 75.7998 83.5 76.8452 83.5 78C83.5 78.3065 83.4532 78.6044 83.3651 78.8929C84.6737 77.8195 85.8864 76.6305 86.9983 75.337C92.4481 68.9972 95.5 60.1194 95.5 50C95.5 29.771 81.3313 13.5 64 13.5ZM45.5 78C45.5 77.2218 45.9031 76.4257 46.7654 75.6462C47.6289 74.8657 48.9153 74.1391 50.5724 73.5185C53.8834 72.2785 58.5705 71.5 64 71.5C69.4295 71.5 74.1166 72.2785 77.4276 73.5185C79.0847 74.1391 80.3711 74.8657 81.2346 75.6462C82.0969 76.4257 82.5 77.2218 82.5 78C82.5 78.757 82.0569 79.5505 81.1091 80.3407C80.1656 81.1272 78.7816 81.857 77.0581 82.4795C73.6155 83.7228 68.9247 84.5 64 84.5C59.0753 84.5 54.3845 83.7228 50.9419 82.4795C49.2184 81.857 47.8344 81.1272 46.8909 80.3407C45.9431 79.5505 45.5 78.757 45.5 78Z" fill="black"/>
<path fill-rule="evenodd" clip-rule="evenodd" d="M64 10.5C42.6911 10.5 25.5 29.5762 25.5 53C25.5 72.7722 37.7489 89.4465 54.3839 94.1649C52.6573 97.1084 50.6786 100.389 49.0513 102.839C46.3242 106.945 40.9579 111.573 36.8848 114.762C35.9176 115.519 35.7163 116.714 36.0366 117.689C36.3575 118.665 37.2293 119.5 38.4664 119.5H89.5337C90.7708 119.5 91.6426 118.665 91.9635 117.689C92.2838 116.714 92.0825 115.519 91.1153 114.762C87.0423 111.573 81.6759 106.945 78.9488 102.839C77.3215 100.389 75.3428 97.1084 73.6162 94.1649C90.2512 89.4465 102.5 72.7721 102.5 53C102.5 29.5762 85.3089 10.5 64 10.5ZM26.5 53C26.5 30.0319 43.3352 11.5 64 11.5C84.6648 11.5 101.5 30.0319 101.5 53C101.5 75.9681 84.6648 94.5 64 94.5C43.3352 94.5 26.5 75.9681 26.5 53ZM72.6144 94.4332C71.3076 94.7627 69.9753 95.0188 68.6211 95.1974C69.7421 97.8756 72.6198 103.663 76.384 108.18C76.5608 108.392 76.5321 108.707 76.32 108.884C76.1078 109.061 75.7926 109.032 75.6158 108.82C71.6399 104.049 68.6506 97.9274 67.589 95.318C66.4076 95.4384 65.2104 95.5 64 95.5C61.0373 95.5 58.1541 95.1312 55.3857 94.4333C53.6227 97.4439 51.5699 100.855 49.8843 103.393C47.0581 107.648 41.5714 112.362 37.5013 115.549C36.9202 116.004 36.7749 116.732 36.9867 117.376C37.1979 118.019 37.7369 118.5 38.4664 118.5H89.5337C90.2632 118.5 90.8022 118.019 91.0135 117.376C91.2253 116.732 91.0799 116.004 90.4988 115.549C86.4287 112.362 80.942 107.648 78.1158 103.393C76.4302 100.855 74.3774 97.4439 72.6144 94.4332Z" fill="black"/>
</svg>
