<svg width="128" height="128" viewBox="0 0 128 128" fill="none" xmlns="http://www.w3.org/2000/svg">
<path d="M30 59.5L17 60V100H110.5V60L98 59.5H30Z" fill="#BEAF22"/>
<path d="M23 80H105V73C105 70.7909 103.209 69 101 69H27C24.7909 69 23 70.7909 23 73V80Z" fill="#FFF067"/>
<path d="M23 80H105V100H23V80Z" fill="#ECDB42"/>
<path d="M30.9201 46.9167C30.9648 45.8455 31.8462 45 32.9184 45H95.0816C96.1538 45 97.0352 45.8455 97.0799 46.9167L98 69H30L30.9201 46.9167Z" fill="#ECDB42"/>
<path d="M15 62C15 60.8954 15.8954 60 17 60H21C22.1046 60 23 60.8954 23 62V100H17C15.8954 100 15 99.1046 15 98V62Z" fill="#FFF067"/>
<path d="M105 62C105 60.8954 105.895 60 107 60H111C112.105 60 113 60.8954 113 62V98C113 99.1046 112.105 100 111 100H105V62Z" fill="#FFF067"/>
<path d="M48.5 56C48.5 56.2761 48.2761 56.5 48 56.5H46.5C46.2239 56.5 46 56.2761 46 56C46 55.7239 46.2239 55.5 46.5 55.5H48C48.2761 55.5 48.5 55.7239 48.5 56Z" fill="black"/>
<path d="M44 56C44 56.2761 43.7761 56.5 43.5 56.5H42C41.7239 56.5 41.5 56.2761 41.5 56C41.5 55.7239 41.7239 55.5 42 55.5H43.5C43.7761 55.5 44 55.7239 44 56Z" fill="black"/>
<path d="M45.5 54C45.5 53.7239 45.2761 53.5 45 53.5C44.7239 53.5 44.5 53.7239 44.5 54V54.5C44.5 54.7761 44.7239 55 45 55C45.2761 55 45.5 54.7761 45.5 54.5V54Z" fill="black"/>
<path d="M45.5 57.5C45.5 57.2239 45.2761 57 45 57C44.7239 57 44.5 57.2239 44.5 57.5V58C44.5 58.2761 44.7239 58.5 45 58.5C45.2761 58.5 45.5 58.2761 45.5 58V57.5Z" fill="black"/>
<path d="M67.5 56C67.5 56.2761 67.2761 56.5 67 56.5H65.5C65.2239 56.5 65 56.2761 65 56C65 55.7239 65.2239 55.5 65.5 55.5H67C67.2761 55.5 67.5 55.7239 67.5 56Z" fill="black"/>
<path d="M63 56C63 56.2761 62.7761 56.5 62.5 56.5H61C60.7239 56.5 60.5 56.2761 60.5 56C60.5 55.7239 60.7239 55.5 61 55.5H62.5C62.7761 55.5 63 55.7239 63 56Z" fill="black"/>
<path d="M64.5 54C64.5 53.7239 64.2761 53.5 64 53.5C63.7239 53.5 63.5 53.7239 63.5 54V54.5C63.5 54.7761 63.7239 55 64 55C64.2761 55 64.5 54.7761 64.5 54.5V54Z" fill="black"/>
<path d="M64.5 57.5C64.5 57.2239 64.2761 57 64 57C63.7239 57 63.5 57.2239 63.5 57.5V58C63.5 58.2761 63.7239 58.5 64 58.5C64.2761 58.5 64.5 58.2761 64.5 58V57.5Z" fill="black"/>
<path d="M86.5 56C86.5 56.2761 86.2761 56.5 86 56.5H84.5C84.2239 56.5 84 56.2761 84 56C84 55.7239 84.2239 55.5 84.5 55.5H86C86.2761 55.5 86.5 55.7239 86.5 56Z" fill="black"/>
<path d="M82 56C82 56.2761 81.7761 56.5 81.5 56.5H80C79.7239 56.5 79.5 56.2761 79.5 56C79.5 55.7239 79.7239 55.5 80 55.5H81.5C81.7761 55.5 82 55.7239 82 56Z" fill="black"/>
<path d="M83.5 54C83.5 53.7239 83.2761 53.5 83 53.5C82.7239 53.5 82.5 53.7239 82.5 54V54.5C82.5 54.7761 82.7239 55 83 55C83.2761 55 83.5 54.7761 83.5 54.5V54Z" fill="black"/>
<path d="M83.5 57.5C83.5 57.2239 83.2761 57 83 57C82.7239 57 82.5 57.2239 82.5 57.5V58C82.5 58.2761 82.7239 58.5 83 58.5C83.2761 58.5 83.5 58.2761 83.5 58V57.5Z" fill="black"/>
<path fill-rule="evenodd" clip-rule="evenodd" d="M32.9184 44.5C31.5782 44.5 30.4764 45.5569 30.4206 46.8959L29.9161 59.0029L16.9901 59.5C15.6139 59.5054 14.5 60.6226 14.5 62V98C14.5 99.3807 15.6193 100.5 17 100.5H111C112.381 100.5 113.5 99.3807 113.5 98V62C113.5 60.6193 112.381 59.5 111 59.5H110.51L98.0839 59.003L97.5794 46.8959C97.5236 45.5569 96.4218 44.5 95.0816 44.5H32.9184ZM107 60.5C106.172 60.5 105.5 61.1716 105.5 62V99.5H111C111.828 99.5 112.5 98.8284 112.5 98V62C112.5 61.1716 111.828 60.5 111 60.5H107ZM104.5 70.1713V62C104.5 61.3374 104.758 60.7349 105.179 60.2876L98.1257 60.0054L98.4796 68.5H101C102.414 68.5 103.675 69.1518 104.5 70.1713ZM104.5 99.5V83.5H23.5V99.5H104.5ZM104.5 82.5V80.5H23.5V82.5H104.5ZM104.5 79.5V73C104.5 71.067 102.933 69.5 101 69.5H27C25.067 69.5 23.5 71.067 23.5 73V79.5H104.5ZM16.9965 60.5C16.1697 60.5019 15.5 61.1727 15.5 62V98C15.5 98.8284 16.1716 99.5 17 99.5H22.5V62C22.5 61.1716 21.8284 60.5 21 60.5L16.9965 60.5ZM23.5 62V70.1713C24.325 69.1518 25.5864 68.5 27 68.5H29.5204L29.8743 60.0052L22.8113 60.2769C23.2381 60.7253 23.5 61.3321 23.5 62ZM97.4787 68.5L96.5803 46.9376C96.5468 46.1341 95.8857 45.5 95.0816 45.5H32.9184C32.1143 45.5 31.4532 46.1341 31.4197 46.9376L30.5213 68.5H97.4787Z" fill="black"/>
</svg>
