<svg width="128" height="128" viewBox="0 0 128 128" fill="none" xmlns="http://www.w3.org/2000/svg">
<path d="M85.0002 63L78.0002 63L87.7403 108.779C87.8918 109.491 88.5207 110 89.2487 110C90.1779 110 90.896 109.184 90.7784 108.263L85.0002 63Z" fill="#C18D68"/>
<path d="M42.9998 63L49.9998 63L40.2597 108.779C40.1082 109.491 39.4793 110 38.7513 110C37.8221 110 37.104 109.184 37.2216 108.263L42.9998 63Z" fill="#C18D68"/>
<path d="M60 63L68 63L66.4724 113.601C66.4321 114.938 65.337 116 64 116C62.663 116 61.5679 114.938 61.5276 113.601L60 63Z" fill="#C18D68"/>
<path d="M88 53C90.7614 53 93 55.2386 93 58C93 60.7614 90.7614 63 88 63L40 63C37.2386 63 35 60.7614 35 58C35 55.2386 37.2386 53 40 53L88 53Z" fill="#EDB790"/>
<path fill-rule="evenodd" clip-rule="evenodd" d="M42.432 63.5H40C36.9624 63.5 34.5 61.0376 34.5 58C34.5 54.9624 36.9624 52.5 40 52.5L88 52.5C91.0376 52.5 93.5 54.9624 93.5 58C93.5 61.0376 91.0376 63.5 88 63.5H85.568L91.2743 108.199C91.4301 109.42 90.4791 110.5 89.2486 110.5C88.2846 110.5 87.4518 109.826 87.2512 108.883L77.5953 63.5L68.4851 63.5L66.9722 113.616C66.9237 115.223 65.6073 116.5 64 116.5C62.3927 116.5 61.0763 115.223 61.0278 113.616L59.5149 63.5L50.4047 63.5L40.7488 108.883C40.5482 109.826 39.7154 110.5 38.7514 110.5C37.5209 110.5 36.5699 109.42 36.7257 108.199L42.432 63.5ZM35.5 58C35.5 55.5147 37.5147 53.5 40 53.5L88 53.5C90.4853 53.5 92.5 55.5147 92.5 58C92.5 60.4853 90.4853 62.5 88 62.5H85.0026C85.0018 62.5 85.0009 62.5 85.0001 62.5L78.0001 62.5C77.9992 62.5 77.9984 62.5 77.9975 62.5L68.0007 62.5C68.0009 62.5 68.0005 62.5 68.0007 62.5L50.0017 62.5C50.0011 62.5 50.0005 62.5 49.9999 62.5L42.9999 62.5C42.9995 62.5 42.9991 62.5 42.9988 62.5H40C37.5147 62.5 35.5 60.4853 35.5 58ZM43.4401 63.5L37.7177 108.326C37.6382 108.949 38.1235 109.5 38.7514 109.5C39.2434 109.5 39.6683 109.156 39.7707 108.675L49.3823 63.5L43.4401 63.5ZM60.5153 63.5L62.0274 113.586C62.0595 114.652 62.9332 115.5 64 115.5C65.0668 115.5 65.9405 114.652 65.9726 113.586L67.4847 63.5H60.5153ZM78.6177 63.5L88.2293 108.675C88.3317 109.156 88.7566 109.5 89.2486 109.5C89.8765 109.5 90.3618 108.949 90.2823 108.326L84.5599 63.5L78.6177 63.5Z" fill="black"/>
</svg>
