<svg width="128" height="128" viewBox="0 0 128 128" fill="none" xmlns="http://www.w3.org/2000/svg">
<path d="M64 9H112V119H64V9Z" fill="#C1967E"/>
<path d="M16 9H64V119H16V9Z" fill="#AB8A78"/>
<path d="M72.5 57C72.5 56.7239 72.2761 56.5 72 56.5C71.7239 56.5 71.5 56.7239 71.5 57V71C71.5 71.2761 71.7239 71.5 72 71.5C72.2761 71.5 72.5 71.2761 72.5 71V57Z" fill="black"/>
<path d="M56 56.5C56.2761 56.5 56.5 56.7239 56.5 57V71C56.5 71.2761 56.2761 71.5 56 71.5C55.7239 71.5 55.5 71.2761 55.5 71V57C55.5 56.7239 55.7239 56.5 56 56.5Z" fill="black"/>
<path fill-rule="evenodd" clip-rule="evenodd" d="M16 8.5C15.7239 8.5 15.5 8.72386 15.5 9V119C15.5 119.276 15.7239 119.5 16 119.5H112C112.276 119.5 112.5 119.276 112.5 119V9C112.5 8.72386 112.276 8.5 112 8.5H16ZM64.5 9.5V118.5H111.5V9.5H64.5ZM63.5 9.5H16.5V118.5H63.5V9.5Z" fill="black"/>
</svg>
