<?xml version="1.0" encoding="UTF-8"?>
<svg width="752pt" height="752pt" version="1.1" viewBox="0 0 752 752" xmlns="http://www.w3.org/2000/svg">
 <path d="m520.92 194.62c-15.629-3.7891-29.363 4.2617-34.57 20.363-1.8945 5.6836-42.621 138.29-44.988 146.81-0.47266 1.4219-0.94531 1.8945-1.4219 2.3672-0.47266-0.47266-0.47266-0.94531-0.94531-2.3672-2.3672-8.9961-14.207-42.148-37.414-104.19 3.3164-21.785 6.1562-39.781 7.5781-45.938 1.4219-7.5781 0-15.156-3.7891-21.312-3.793-7.1016-10.422-11.836-18-13.258-5.6836-0.94531-10.891-0.94531-15.156 0.47266-2.8398-5.2109-7.5781-9.4727-13.262-11.84-7.1055-3.3164-15.156-3.7891-22.73-0.94531-15.629 5.6836-23.207 22.258-17.996 37.887 2.3672 6.6289 8.5234 25.574 19.418 56.828-10.891 43.098-23.68 94.715-25.574 102.29v1.8945c-1.8945 0.47266-3.3164 0.94531-4.7344 1.4219v-0.47266c-2.3672-6.6289-21.312-53.516-35.047-87.613-6.1562-15.156-10.891-27.469-11.84-29.836-6.1562-15.156-21.785-19.891-33.152-15.629-13.734 5.2109-20.363 18.941-15.629 33.152 4.2617 13.262 43.57 137.34 45.938 150.12 1.8945 10.418 1.4219 21.312 0.47266 32.203-0.47266 5.2109-0.47266 10.418-0.47266 15.156 0 33.625 13.734 65.828 38.359 89.508 24.625 24.152 57.305 37.414 92.348 37.414 87.141 0 125.97-64.879 126.45-129.76v-0.47266-1.4219c0-17.523-1.8945-29.836-3.3164-39.781-0.94531-6.6289-1.8945-12.312-1.8945-17.051 0-10.418 19.891-106.55 28.887-147.76 2.3672-11.84 4.2617-20.836 4.7344-23.68 1.9062-16.574-7.0938-31.258-22.246-34.57zm-192.27 4.7344c-2.8398-8.5234 0-19.418 10.891-23.68 4.7344-1.8945 9.4727-1.4219 14.207 0.47266 3.3164 1.4219 6.1562 4.2617 8.0508 7.5781-3.7891 3.7891-7.1055 8.5234-9.4727 15.156v0.47266c0 0.47266-4.2617 17.523-9.9453 40.727-7.1016-22.258-11.836-35.516-13.73-40.727zm146.81 340.98c-20.363 24.625-50.672 37.414-87.613 37.414-31.73 0-61.566-12.312-84.297-34.098s-35.047-50.672-35.047-81.457c0-4.7344 0.47266-9.4727 0.47266-14.68 0.94531-10.891 1.4219-23.207-0.94531-35.047-2.8398-13.262-41.676-137.81-46.41-151.07-1.8945-6.6289-0.94531-15.156 8.5234-18.941 6.6289-2.3672 15.156 0 18.941 8.9961 0.94531 2.3672 5.6836 14.207 11.84 29.836 12.785 32.203 32.676 80.508 34.57 87.141 0.47266 0.94531 0.47266 1.4219 0.94531 2.3672-7.1055 5.6836-10.418 14.207-10.418 22.258 0 7.5781 5.6836 35.047 31.73 61.094 14.68 14.68 32.676 26.047 54.461 34.098 26.047 9.9453 57.305 15.156 92.82 15.156 3.3164 0 5.6836-2.3672 5.6836-5.6836s-2.3672-5.6836-5.6836-5.6836c-61.094 0-109.4-15.629-139.23-45.938-23.207-23.68-28.414-48.305-28.414-53.043 0-9.4727 6.6289-18.941 22.258-18.941 3.7891 0 10.418 4.7344 18.469 9.9453 22.258 15.629 60.145 41.676 130.71 41.676 23.68 0 32.676 18.941 33.625 31.73v1.4219c0.011719 31.727-9.4609 60.613-26.984 81.453zm55.41-313.51c-0.47266 2.8398-2.3672 11.367-4.7344 23.207-15.156 71.984-28.887 140.18-28.887 150.12 0 6.1562 0.94531 11.84 1.8945 18.941 0.47266 2.3672 0.94531 4.7344 0.94531 7.1055-6.1562-6.1562-16.102-11.84-31.258-11.84-67.25 0-102.77-24.625-124.08-39.309-8.5234-6.1562-15.156-10.418-21.312-11.84 5.2109-20.363 37.887-152.96 40.254-161.49 4.7344-13.734 14.207-15.156 21.312-13.734 10.891 2.3672 14.68 12.785 13.262 21.312-3.3164 18.469-23.207 149.18-24.152 154.86-0.47266 3.3164 1.4219 6.1562 4.7344 6.6289h0.94531c2.8398 0 5.2109-1.8945 5.6836-4.7344 0-0.94531 6.6289-44.516 13.262-85.246 10.418 28.891 26.52 74.355 29.359 84.301 2.3672 8.0508 7.5781 10.891 11.84 10.891 5.6836 0 10.418-4.7344 12.312-11.367 2.3672-8.0508 44.516-145.39 44.988-146.34 4.7344-14.68 16.574-13.734 21.312-12.785 9 1.8945 14.211 11.367 12.316 21.312z" fill="#f59901"/>
</svg>
